M48
;GenerationSoftware,Autodesk,EAGLE,9.6.2*%
;CreationDate,2022-05-26T01:44:39Z*%
FMAT,2
ICI,OFF
METRIC,TZ,000.000
T6C1.016
T5C1.020
T4C1.270
T3C1.330
T2C3.000
T1C4.000
%
G90
M71
T1
X42000Y74000
X3000Y74000
X42000Y3000
T2
X27040Y49075
X2530Y49075
X2530Y2125
X27040Y2125
T3
X35580Y4940
X35580Y19180
X35580Y16640
X35580Y21720
X35580Y7480
X35580Y10020
T4
X30894Y50038
T5
X27460Y10085
X27460Y12625
X27460Y15165
X27460Y17705
X27460Y20245
X27460Y22785
X27460Y25325
X27460Y27865
X27460Y30405
X27460Y32945
X27460Y35485
X27460Y38025
X27460Y40565
X27460Y43105
X27460Y45645
X2060Y10085
X2060Y12625
X2060Y15165
X2060Y17705
X2060Y20245
X2060Y22785
X2060Y25325
X2060Y27865
X2060Y30405
X2060Y32945
X2060Y35485
X2060Y38025
X2060Y40565
X2060Y43105
X2060Y45645
T6
X10160Y56912
X12700Y56912
X15240Y56912
X17780Y56912
M30