G04 EAGLE Gerber RS-274X export*
G75*
%MOMM*%
%FSLAX34Y34*%
%LPD*%
%IN*%
%IPPOS*%
%AMOC8*
5,1,8,0,0,1.08239X$1,22.5*%
G01*
%ADD10C,0.254000*%


D10*
X-29210Y783970D02*
X-27940Y-19050D01*
X471060Y-20320D01*
X469790Y782700D01*
X-29210Y783970D01*
X50000Y739396D02*
X49927Y738189D01*
X49781Y736989D01*
X49563Y735800D01*
X49274Y734627D01*
X48915Y733473D01*
X48486Y732343D01*
X47990Y731241D01*
X47428Y730170D01*
X46803Y729136D01*
X46116Y728141D01*
X45371Y727190D01*
X44569Y726285D01*
X43715Y725431D01*
X42810Y724629D01*
X41859Y723884D01*
X40864Y723197D01*
X39830Y722572D01*
X38759Y722010D01*
X37657Y721514D01*
X36527Y721085D01*
X35373Y720726D01*
X34200Y720437D01*
X33011Y720219D01*
X31811Y720073D01*
X30604Y720000D01*
X29396Y720000D01*
X28189Y720073D01*
X26989Y720219D01*
X25800Y720437D01*
X24627Y720726D01*
X23473Y721085D01*
X22343Y721514D01*
X21241Y722010D01*
X20170Y722572D01*
X19136Y723197D01*
X18141Y723884D01*
X17190Y724629D01*
X16285Y725431D01*
X15431Y726285D01*
X14629Y727190D01*
X13884Y728141D01*
X13197Y729136D01*
X12572Y730170D01*
X12010Y731241D01*
X11514Y732343D01*
X11085Y733473D01*
X10726Y734627D01*
X10437Y735800D01*
X10219Y736989D01*
X10073Y738189D01*
X10000Y739396D01*
X10000Y740604D01*
X10073Y741811D01*
X10219Y743011D01*
X10437Y744200D01*
X10726Y745373D01*
X11085Y746527D01*
X11514Y747657D01*
X12010Y748759D01*
X12572Y749830D01*
X13197Y750864D01*
X13884Y751859D01*
X14629Y752810D01*
X15431Y753715D01*
X16285Y754569D01*
X17190Y755371D01*
X18141Y756116D01*
X19136Y756803D01*
X20170Y757428D01*
X21241Y757990D01*
X22343Y758486D01*
X23473Y758915D01*
X24627Y759274D01*
X25800Y759563D01*
X26989Y759781D01*
X28189Y759927D01*
X29396Y760000D01*
X30604Y760000D01*
X31811Y759927D01*
X33011Y759781D01*
X34200Y759563D01*
X35373Y759274D01*
X36527Y758915D01*
X37657Y758486D01*
X38759Y757990D01*
X39830Y757428D01*
X40864Y756803D01*
X41859Y756116D01*
X42810Y755371D01*
X43715Y754569D01*
X44569Y753715D01*
X45371Y752810D01*
X46116Y751859D01*
X46803Y750864D01*
X47428Y749830D01*
X47990Y748759D01*
X48486Y747657D01*
X48915Y746527D01*
X49274Y745373D01*
X49563Y744200D01*
X49781Y743011D01*
X49927Y741811D01*
X50000Y740604D01*
X50000Y739396D01*
X440000Y739396D02*
X439927Y738189D01*
X439781Y736989D01*
X439563Y735800D01*
X439274Y734627D01*
X438915Y733473D01*
X438486Y732343D01*
X437990Y731241D01*
X437428Y730170D01*
X436803Y729136D01*
X436116Y728141D01*
X435371Y727190D01*
X434569Y726285D01*
X433715Y725431D01*
X432810Y724629D01*
X431859Y723884D01*
X430864Y723197D01*
X429830Y722572D01*
X428759Y722010D01*
X427657Y721514D01*
X426527Y721085D01*
X425373Y720726D01*
X424200Y720437D01*
X423011Y720219D01*
X421811Y720073D01*
X420604Y720000D01*
X419396Y720000D01*
X418189Y720073D01*
X416989Y720219D01*
X415800Y720437D01*
X414627Y720726D01*
X413473Y721085D01*
X412343Y721514D01*
X411241Y722010D01*
X410170Y722572D01*
X409136Y723197D01*
X408141Y723884D01*
X407190Y724629D01*
X406285Y725431D01*
X405431Y726285D01*
X404629Y727190D01*
X403884Y728141D01*
X403197Y729136D01*
X402572Y730170D01*
X402010Y731241D01*
X401514Y732343D01*
X401085Y733473D01*
X400726Y734627D01*
X400437Y735800D01*
X400219Y736989D01*
X400073Y738189D01*
X400000Y739396D01*
X400000Y740604D01*
X400073Y741811D01*
X400219Y743011D01*
X400437Y744200D01*
X400726Y745373D01*
X401085Y746527D01*
X401514Y747657D01*
X402010Y748759D01*
X402572Y749830D01*
X403197Y750864D01*
X403884Y751859D01*
X404629Y752810D01*
X405431Y753715D01*
X406285Y754569D01*
X407190Y755371D01*
X408141Y756116D01*
X409136Y756803D01*
X410170Y757428D01*
X411241Y757990D01*
X412343Y758486D01*
X413473Y758915D01*
X414627Y759274D01*
X415800Y759563D01*
X416989Y759781D01*
X418189Y759927D01*
X419396Y760000D01*
X420604Y760000D01*
X421811Y759927D01*
X423011Y759781D01*
X424200Y759563D01*
X425373Y759274D01*
X426527Y758915D01*
X427657Y758486D01*
X428759Y757990D01*
X429830Y757428D01*
X430864Y756803D01*
X431859Y756116D01*
X432810Y755371D01*
X433715Y754569D01*
X434569Y753715D01*
X435371Y752810D01*
X436116Y751859D01*
X436803Y750864D01*
X437428Y749830D01*
X437990Y748759D01*
X438486Y747657D01*
X438915Y746527D01*
X439274Y745373D01*
X439563Y744200D01*
X439781Y743011D01*
X439927Y741811D01*
X440000Y740604D01*
X440000Y739396D01*
X440000Y29396D02*
X439927Y28189D01*
X439781Y26989D01*
X439563Y25800D01*
X439274Y24627D01*
X438915Y23473D01*
X438486Y22343D01*
X437990Y21241D01*
X437428Y20170D01*
X436803Y19136D01*
X436116Y18141D01*
X435371Y17190D01*
X434569Y16285D01*
X433715Y15431D01*
X432810Y14629D01*
X431859Y13884D01*
X430864Y13197D01*
X429830Y12572D01*
X428759Y12010D01*
X427657Y11514D01*
X426527Y11085D01*
X425373Y10726D01*
X424200Y10437D01*
X423011Y10219D01*
X421811Y10073D01*
X420604Y10000D01*
X419396Y10000D01*
X418189Y10073D01*
X416989Y10219D01*
X415800Y10437D01*
X414627Y10726D01*
X413473Y11085D01*
X412343Y11514D01*
X411241Y12010D01*
X410170Y12572D01*
X409136Y13197D01*
X408141Y13884D01*
X407190Y14629D01*
X406285Y15431D01*
X405431Y16285D01*
X404629Y17190D01*
X403884Y18141D01*
X403197Y19136D01*
X402572Y20170D01*
X402010Y21241D01*
X401514Y22343D01*
X401085Y23473D01*
X400726Y24627D01*
X400437Y25800D01*
X400219Y26989D01*
X400073Y28189D01*
X400000Y29396D01*
X400000Y30604D01*
X400073Y31811D01*
X400219Y33011D01*
X400437Y34200D01*
X400726Y35373D01*
X401085Y36527D01*
X401514Y37657D01*
X402010Y38759D01*
X402572Y39830D01*
X403197Y40864D01*
X403884Y41859D01*
X404629Y42810D01*
X405431Y43715D01*
X406285Y44569D01*
X407190Y45371D01*
X408141Y46116D01*
X409136Y46803D01*
X410170Y47428D01*
X411241Y47990D01*
X412343Y48486D01*
X413473Y48915D01*
X414627Y49274D01*
X415800Y49563D01*
X416989Y49781D01*
X418189Y49927D01*
X419396Y50000D01*
X420604Y50000D01*
X421811Y49927D01*
X423011Y49781D01*
X424200Y49563D01*
X425373Y49274D01*
X426527Y48915D01*
X427657Y48486D01*
X428759Y47990D01*
X429830Y47428D01*
X430864Y46803D01*
X431859Y46116D01*
X432810Y45371D01*
X433715Y44569D01*
X434569Y43715D01*
X435371Y42810D01*
X436116Y41859D01*
X436803Y40864D01*
X437428Y39830D01*
X437990Y38759D01*
X438486Y37657D01*
X438915Y36527D01*
X439274Y35373D01*
X439563Y34200D01*
X439781Y33011D01*
X439927Y31811D01*
X440000Y30604D01*
X440000Y29396D01*
X255400Y491286D02*
X255476Y492354D01*
X255629Y493415D01*
X255857Y494462D01*
X256159Y495490D01*
X256533Y496494D01*
X256978Y497469D01*
X257492Y498409D01*
X258071Y499310D01*
X258713Y500168D01*
X259415Y500978D01*
X260172Y501735D01*
X260982Y502437D01*
X261840Y503079D01*
X262741Y503658D01*
X263681Y504172D01*
X264656Y504617D01*
X265660Y504991D01*
X266688Y505293D01*
X267735Y505521D01*
X268796Y505674D01*
X269864Y505750D01*
X270936Y505750D01*
X272004Y505674D01*
X273065Y505521D01*
X274112Y505293D01*
X275140Y504991D01*
X276144Y504617D01*
X277119Y504172D01*
X278059Y503658D01*
X278960Y503079D01*
X279818Y502437D01*
X280628Y501735D01*
X281385Y500978D01*
X282087Y500168D01*
X282729Y499310D01*
X283308Y498409D01*
X283822Y497469D01*
X284267Y496494D01*
X284641Y495490D01*
X284943Y494462D01*
X285171Y493415D01*
X285324Y492354D01*
X285400Y491286D01*
X285400Y490214D01*
X285324Y489146D01*
X285171Y488085D01*
X284943Y487038D01*
X284641Y486010D01*
X284267Y485006D01*
X283822Y484031D01*
X283308Y483091D01*
X282729Y482190D01*
X282087Y481332D01*
X281385Y480522D01*
X280628Y479765D01*
X279818Y479063D01*
X278960Y478421D01*
X278059Y477842D01*
X277119Y477328D01*
X276144Y476883D01*
X275140Y476509D01*
X274112Y476207D01*
X273065Y475979D01*
X272004Y475826D01*
X270936Y475750D01*
X269864Y475750D01*
X268796Y475826D01*
X267735Y475979D01*
X266688Y476207D01*
X265660Y476509D01*
X264656Y476883D01*
X263681Y477328D01*
X262741Y477842D01*
X261840Y478421D01*
X260982Y479063D01*
X260172Y479765D01*
X259415Y480522D01*
X258713Y481332D01*
X258071Y482190D01*
X257492Y483091D01*
X256978Y484031D01*
X256533Y485006D01*
X256159Y486010D01*
X255857Y487038D01*
X255629Y488085D01*
X255476Y489146D01*
X255400Y490214D01*
X255400Y491286D01*
X10300Y491286D02*
X10376Y492354D01*
X10529Y493415D01*
X10757Y494462D01*
X11059Y495490D01*
X11433Y496494D01*
X11878Y497469D01*
X12392Y498409D01*
X12971Y499310D01*
X13613Y500168D01*
X14315Y500978D01*
X15072Y501735D01*
X15882Y502437D01*
X16740Y503079D01*
X17641Y503658D01*
X18581Y504172D01*
X19556Y504617D01*
X20560Y504991D01*
X21588Y505293D01*
X22635Y505521D01*
X23696Y505674D01*
X24764Y505750D01*
X25836Y505750D01*
X26904Y505674D01*
X27965Y505521D01*
X29012Y505293D01*
X30040Y504991D01*
X31044Y504617D01*
X32019Y504172D01*
X32959Y503658D01*
X33860Y503079D01*
X34718Y502437D01*
X35528Y501735D01*
X36285Y500978D01*
X36987Y500168D01*
X37629Y499310D01*
X38208Y498409D01*
X38722Y497469D01*
X39167Y496494D01*
X39541Y495490D01*
X39843Y494462D01*
X40071Y493415D01*
X40224Y492354D01*
X40300Y491286D01*
X40300Y490214D01*
X40224Y489146D01*
X40071Y488085D01*
X39843Y487038D01*
X39541Y486010D01*
X39167Y485006D01*
X38722Y484031D01*
X38208Y483091D01*
X37629Y482190D01*
X36987Y481332D01*
X36285Y480522D01*
X35528Y479765D01*
X34718Y479063D01*
X33860Y478421D01*
X32959Y477842D01*
X32019Y477328D01*
X31044Y476883D01*
X30040Y476509D01*
X29012Y476207D01*
X27965Y475979D01*
X26904Y475826D01*
X25836Y475750D01*
X24764Y475750D01*
X23696Y475826D01*
X22635Y475979D01*
X21588Y476207D01*
X20560Y476509D01*
X19556Y476883D01*
X18581Y477328D01*
X17641Y477842D01*
X16740Y478421D01*
X15882Y479063D01*
X15072Y479765D01*
X14315Y480522D01*
X13613Y481332D01*
X12971Y482190D01*
X12392Y483091D01*
X11878Y484031D01*
X11433Y485006D01*
X11059Y486010D01*
X10757Y487038D01*
X10529Y488085D01*
X10376Y489146D01*
X10300Y490214D01*
X10300Y491286D01*
X10300Y21786D02*
X10376Y22854D01*
X10529Y23915D01*
X10757Y24962D01*
X11059Y25990D01*
X11433Y26994D01*
X11878Y27969D01*
X12392Y28909D01*
X12971Y29810D01*
X13613Y30668D01*
X14315Y31478D01*
X15072Y32235D01*
X15882Y32937D01*
X16740Y33579D01*
X17641Y34158D01*
X18581Y34672D01*
X19556Y35117D01*
X20560Y35491D01*
X21588Y35793D01*
X22635Y36021D01*
X23696Y36174D01*
X24764Y36250D01*
X25836Y36250D01*
X26904Y36174D01*
X27965Y36021D01*
X29012Y35793D01*
X30040Y35491D01*
X31044Y35117D01*
X32019Y34672D01*
X32959Y34158D01*
X33860Y33579D01*
X34718Y32937D01*
X35528Y32235D01*
X36285Y31478D01*
X36987Y30668D01*
X37629Y29810D01*
X38208Y28909D01*
X38722Y27969D01*
X39167Y26994D01*
X39541Y25990D01*
X39843Y24962D01*
X40071Y23915D01*
X40224Y22854D01*
X40300Y21786D01*
X40300Y20714D01*
X40224Y19646D01*
X40071Y18585D01*
X39843Y17538D01*
X39541Y16510D01*
X39167Y15506D01*
X38722Y14531D01*
X38208Y13591D01*
X37629Y12690D01*
X36987Y11832D01*
X36285Y11022D01*
X35528Y10265D01*
X34718Y9563D01*
X33860Y8921D01*
X32959Y8342D01*
X32019Y7828D01*
X31044Y7383D01*
X30040Y7009D01*
X29012Y6707D01*
X27965Y6479D01*
X26904Y6326D01*
X25836Y6250D01*
X24764Y6250D01*
X23696Y6326D01*
X22635Y6479D01*
X21588Y6707D01*
X20560Y7009D01*
X19556Y7383D01*
X18581Y7828D01*
X17641Y8342D01*
X16740Y8921D01*
X15882Y9563D01*
X15072Y10265D01*
X14315Y11022D01*
X13613Y11832D01*
X12971Y12690D01*
X12392Y13591D01*
X11878Y14531D01*
X11433Y15506D01*
X11059Y16510D01*
X10757Y17538D01*
X10529Y18585D01*
X10376Y19646D01*
X10300Y20714D01*
X10300Y21786D01*
X255400Y21786D02*
X255476Y22854D01*
X255629Y23915D01*
X255857Y24962D01*
X256159Y25990D01*
X256533Y26994D01*
X256978Y27969D01*
X257492Y28909D01*
X258071Y29810D01*
X258713Y30668D01*
X259415Y31478D01*
X260172Y32235D01*
X260982Y32937D01*
X261840Y33579D01*
X262741Y34158D01*
X263681Y34672D01*
X264656Y35117D01*
X265660Y35491D01*
X266688Y35793D01*
X267735Y36021D01*
X268796Y36174D01*
X269864Y36250D01*
X270936Y36250D01*
X272004Y36174D01*
X273065Y36021D01*
X274112Y35793D01*
X275140Y35491D01*
X276144Y35117D01*
X277119Y34672D01*
X278059Y34158D01*
X278960Y33579D01*
X279818Y32937D01*
X280628Y32235D01*
X281385Y31478D01*
X282087Y30668D01*
X282729Y29810D01*
X283308Y28909D01*
X283822Y27969D01*
X284267Y26994D01*
X284641Y25990D01*
X284943Y24962D01*
X285171Y23915D01*
X285324Y22854D01*
X285400Y21786D01*
X285400Y20714D01*
X285324Y19646D01*
X285171Y18585D01*
X284943Y17538D01*
X284641Y16510D01*
X284267Y15506D01*
X283822Y14531D01*
X283308Y13591D01*
X282729Y12690D01*
X282087Y11832D01*
X281385Y11022D01*
X280628Y10265D01*
X279818Y9563D01*
X278960Y8921D01*
X278059Y8342D01*
X277119Y7828D01*
X276144Y7383D01*
X275140Y7009D01*
X274112Y6707D01*
X273065Y6479D01*
X272004Y6326D01*
X270936Y6250D01*
X269864Y6250D01*
X268796Y6326D01*
X267735Y6479D01*
X266688Y6707D01*
X265660Y7009D01*
X264656Y7383D01*
X263681Y7828D01*
X262741Y8342D01*
X261840Y8921D01*
X260982Y9563D01*
X260172Y10265D01*
X259415Y11022D01*
X258713Y11832D01*
X258071Y12690D01*
X257492Y13591D01*
X256978Y14531D01*
X256533Y15506D01*
X256159Y16510D01*
X255857Y17538D01*
X255629Y18585D01*
X255476Y19646D01*
X255400Y20714D01*
X255400Y21786D01*
M02*
