M48
;GenerationSoftware,Autodesk,EAGLE,9.6.2*%
;CreationDate,2022-05-10T15:50:35Z*%
FMAT,2
ICI,OFF
METRIC,TZ,000.000
T5C0.305
T4C0.350
T3C1.016
T2C1.330
T1C3.988
%
G90
M71
T1
X4407Y3912
X54889Y30416
X4407Y30416
X54889Y3912
T2
X41910Y21590
X41910Y19050
X41910Y10160
X41910Y5080
X41910Y16510
X41910Y7620
T3
X19050Y25400
X2642Y19304
X2642Y16764
X2642Y14224
X2642Y11684
T4
X35179Y5029
X34976Y12776
X35001Y14072
X27000Y18948
X23698Y20523
X27000Y16916
X26670Y11430
X23749Y10033
X35179Y6426
X26670Y15240
X22885Y15875
X21590Y11430
X21006Y13284
X9144Y16002
X9144Y8636
T5
X6350Y19050
X9373Y19050
X27280Y24562
X30378Y24486
X27051Y8636
X11430Y20320
X6350Y21590
X31826Y23190
X33299Y23089
X12421Y15138
X23622Y8509
X30353Y23165
X26670Y20320
X23647Y19025
X6274Y17501
X9296Y17577
M30