G04 EAGLE Gerber RS-274X export*
G75*
%MOMM*%
%FSLAX34Y34*%
%LPD*%
%INTop Copper*%
%IPPOS*%
%AMOC8*
5,1,8,0,0,1.08239X$1,22.5*%
G01*
%ADD10R,5.080000X2.540000*%
%ADD11R,1.600000X1.800000*%
%ADD12R,2.540000X5.080000*%
%ADD13R,1.500000X0.900000*%
%ADD14R,4.000000X4.000000*%
%ADD15C,2.000000*%
%ADD16R,2.000000X2.000000*%
%ADD17R,1.600000X1.803000*%
%ADD18C,0.102000*%
%ADD19C,1.524000*%
%ADD20C,0.304800*%
%ADD21C,0.756400*%
%ADD22C,2.540000*%
%ADD23C,0.406400*%
%ADD24C,0.711200*%
%ADD25C,1.524000*%


D10*
X495300Y228600D03*
D11*
X290800Y63500D03*
X318800Y63500D03*
X290800Y38100D03*
X318800Y38100D03*
X318800Y114300D03*
X290800Y114300D03*
X318800Y165100D03*
X290800Y165100D03*
X318800Y190500D03*
X290800Y190500D03*
D10*
X495300Y127000D03*
D12*
X155321Y254000D03*
X231140Y254000D03*
D13*
X252600Y85300D03*
X252600Y100300D03*
X252600Y115300D03*
X252600Y130300D03*
X252600Y145300D03*
X252600Y160300D03*
X252600Y175300D03*
X252600Y190300D03*
X252600Y205300D03*
X77600Y205300D03*
X77600Y190300D03*
X77600Y175300D03*
X77600Y160300D03*
X77600Y145300D03*
X77600Y130300D03*
X77600Y115300D03*
X77600Y100300D03*
X77600Y85300D03*
D14*
X154100Y151400D03*
D15*
X419100Y76200D03*
D16*
X419100Y50800D03*
D15*
X419100Y101600D03*
X419100Y190500D03*
D16*
X419100Y165100D03*
D15*
X419100Y215900D03*
D17*
X290580Y88900D03*
X319020Y88900D03*
X319020Y139700D03*
X290580Y139700D03*
D18*
X287183Y238658D02*
X297163Y238658D01*
X287183Y238658D02*
X287183Y243638D01*
X297163Y243638D01*
X297163Y238658D01*
X297163Y239627D02*
X287183Y239627D01*
X287183Y240596D02*
X297163Y240596D01*
X297163Y241565D02*
X287183Y241565D01*
X287183Y242534D02*
X297163Y242534D01*
X297163Y243503D02*
X287183Y243503D01*
X287183Y229158D02*
X297163Y229158D01*
X287183Y229158D02*
X287183Y234138D01*
X297163Y234138D01*
X297163Y229158D01*
X297163Y230127D02*
X287183Y230127D01*
X287183Y231096D02*
X297163Y231096D01*
X297163Y232065D02*
X287183Y232065D01*
X287183Y233034D02*
X297163Y233034D01*
X297163Y234003D02*
X287183Y234003D01*
X287183Y219658D02*
X297163Y219658D01*
X287183Y219658D02*
X287183Y224638D01*
X297163Y224638D01*
X297163Y219658D01*
X297163Y220627D02*
X287183Y220627D01*
X287183Y221596D02*
X297163Y221596D01*
X297163Y222565D02*
X287183Y222565D01*
X287183Y223534D02*
X297163Y223534D01*
X297163Y224503D02*
X287183Y224503D01*
X313183Y219658D02*
X323163Y219658D01*
X313183Y219658D02*
X313183Y224638D01*
X323163Y224638D01*
X323163Y219658D01*
X323163Y220627D02*
X313183Y220627D01*
X313183Y221596D02*
X323163Y221596D01*
X323163Y222565D02*
X313183Y222565D01*
X313183Y223534D02*
X323163Y223534D01*
X323163Y224503D02*
X313183Y224503D01*
X313183Y238658D02*
X323163Y238658D01*
X313183Y238658D02*
X313183Y243638D01*
X323163Y243638D01*
X323163Y238658D01*
X323163Y239627D02*
X313183Y239627D01*
X313183Y240596D02*
X323163Y240596D01*
X323163Y241565D02*
X313183Y241565D01*
X313183Y242534D02*
X323163Y242534D01*
X323163Y243503D02*
X313183Y243503D01*
D12*
X101600Y254000D03*
D10*
X495300Y177800D03*
D19*
X34036Y193040D02*
X18796Y193040D01*
X18796Y167640D02*
X34036Y167640D01*
X34036Y142240D02*
X18796Y142240D01*
X18796Y116840D02*
X34036Y116840D01*
D20*
X77600Y145300D02*
X85052Y137848D01*
X86363Y137848D01*
X109911Y114300D02*
X215900Y114300D01*
D21*
X215900Y114300D03*
D20*
X109911Y114300D02*
X86363Y137848D01*
X93150Y205300D02*
X77600Y205300D01*
X101854Y196596D02*
X101854Y136144D01*
X115062Y122936D01*
X101854Y196596D02*
X93150Y205300D01*
X115062Y122936D02*
X200152Y122936D01*
D21*
X210058Y132842D03*
D20*
X200152Y122936D01*
D22*
X155321Y251479D02*
X155321Y254000D01*
D23*
X91160Y160300D02*
X77600Y160300D01*
X91160Y160300D02*
X91440Y160020D01*
D21*
X91440Y160020D03*
D23*
X78660Y86360D02*
X77600Y85300D01*
X78660Y86360D02*
X91440Y86360D01*
D21*
X91440Y86360D03*
D23*
X339090Y37592D02*
X351790Y50292D01*
X339090Y37592D02*
X337447Y37592D01*
X337259Y38100D01*
X318800Y38100D01*
D21*
X351790Y50292D03*
D23*
X351790Y64262D02*
X351790Y64516D01*
X319816Y64516D01*
X318800Y63500D01*
D21*
X351790Y64262D03*
D23*
X336296Y114300D02*
X318800Y114300D01*
X336296Y114300D02*
X349758Y127762D01*
D21*
X349758Y127762D03*
D23*
X348996Y139700D02*
X319020Y139700D01*
X348996Y139700D02*
X350012Y140716D01*
D21*
X350012Y140716D03*
D23*
X270032Y189454D02*
X270002Y189484D01*
D21*
X270002Y189484D03*
D23*
X252600Y205300D02*
X237050Y205300D01*
X236982Y205232D01*
D21*
X236982Y205232D03*
D20*
X274066Y165100D02*
X290800Y165100D01*
X274066Y165100D02*
X270002Y169164D01*
D21*
X270002Y169164D03*
D20*
X271078Y190500D02*
X290800Y190500D01*
X271078Y190500D02*
X270032Y189454D01*
X292173Y231648D02*
X303530Y231648D01*
D24*
X303530Y231648D03*
D20*
X154100Y151400D02*
X124222Y151400D01*
X124206Y151384D01*
D24*
X124206Y151384D03*
D22*
X155321Y254000D02*
X190500Y254000D01*
D25*
X190500Y254000D03*
D22*
X482600Y190500D02*
X495300Y177800D01*
X482600Y190500D02*
X419100Y190500D01*
X495300Y127000D02*
X444500Y76200D01*
X419100Y76200D01*
D23*
X290800Y63500D02*
X290800Y38100D01*
X342756Y25544D02*
X342900Y25400D01*
X290800Y31371D02*
X290800Y38100D01*
X290800Y31371D02*
X296627Y25544D01*
X342756Y25544D01*
X342900Y25400D02*
X361950Y44450D01*
X361950Y146050D01*
D20*
X361950Y177800D01*
X290580Y88900D02*
X290800Y88680D01*
X290800Y63500D01*
X318800Y165100D02*
X349250Y165100D01*
X361950Y177800D01*
X361950Y221996D01*
X351536Y232410D02*
X334518Y232410D01*
X332994Y230886D01*
D24*
X332994Y230886D03*
X318262Y231902D03*
D20*
X318173Y231991D01*
X318173Y241148D01*
X351536Y232410D02*
X361950Y221996D01*
X40640Y193040D02*
X26416Y193040D01*
X40640Y193040D02*
X63500Y215900D01*
D24*
X63500Y215900D03*
X114300Y203200D03*
D20*
X245148Y92752D02*
X252600Y85300D01*
X170861Y203200D02*
X114300Y203200D01*
X230660Y97501D02*
X235409Y92752D01*
X245148Y92752D01*
X230660Y143401D02*
X170861Y203200D01*
X230660Y143401D02*
X230660Y97501D01*
X236430Y85300D02*
X252600Y85300D01*
X236430Y85300D02*
X236220Y85090D01*
D24*
X236220Y85090D03*
X270510Y86360D03*
D20*
X273050Y88900D01*
X290580Y88900D01*
D22*
X101600Y254000D02*
X101600Y279400D01*
X127000Y304800D01*
X229362Y304800D01*
X419100Y304800D01*
X495300Y228600D01*
D20*
X311404Y234638D02*
X307790Y238252D01*
X311404Y234638D02*
X311404Y229421D01*
X307028Y225044D01*
X295069Y238252D02*
X292173Y241148D01*
X295069Y225044D02*
X292173Y222148D01*
X295069Y238252D02*
X307790Y238252D01*
X307028Y225044D02*
X295069Y225044D01*
X292173Y241148D02*
X300076Y241148D01*
X303784Y244856D01*
D24*
X303784Y244856D03*
X272796Y245618D03*
D20*
X263144Y245618D01*
X263144Y271018D02*
X229362Y304800D01*
X297426Y211874D02*
X318800Y190500D01*
X297426Y211874D02*
X284835Y211874D01*
X263144Y233565D01*
X263144Y245618D01*
X263144Y271018D01*
D23*
X293620Y114300D02*
X319020Y88900D01*
X293620Y114300D02*
X290800Y114300D01*
X252600Y100300D02*
X237520Y100300D01*
X237490Y100330D01*
D21*
X237490Y100330D03*
X266700Y114300D03*
D23*
X290800Y114300D01*
X290580Y139700D02*
X277880Y152400D01*
X266700Y152400D01*
D21*
X266700Y152400D03*
X228854Y158750D03*
D20*
X230404Y160300D01*
X252600Y160300D01*
X266700Y218440D02*
X231140Y254000D01*
X266700Y218440D02*
X266700Y203200D01*
D24*
X266700Y203200D03*
X236474Y190246D03*
D20*
X252546Y190246D01*
X252600Y190300D01*
X29972Y142240D02*
X26416Y142240D01*
X29972Y142240D02*
X62738Y175006D01*
D24*
X62738Y175006D03*
X92964Y175768D03*
D20*
X78068Y175768D01*
X77600Y175300D01*
X49276Y190500D02*
X26416Y167640D01*
X49276Y190500D02*
X63500Y190500D01*
D24*
X63500Y190500D03*
X93726Y190500D03*
D20*
X93526Y190300D01*
X77600Y190300D01*
M02*
