G04 EAGLE Gerber RS-274X export*
G75*
%MOMM*%
%FSLAX34Y34*%
%LPD*%
%IN*%
%IPPOS*%
%AMOC8*
5,1,8,0,0,1.08239X$1,22.5*%
G01*
%ADD10C,0.254000*%


D10*
X0Y0D02*
X593600Y0D01*
X593600Y342800D01*
X0Y342800D01*
X0Y0D01*
X568833Y303563D02*
X568760Y302360D01*
X568615Y301164D01*
X568398Y299978D01*
X568109Y298808D01*
X567751Y297658D01*
X567324Y296531D01*
X566829Y295432D01*
X566269Y294365D01*
X565646Y293334D01*
X564961Y292343D01*
X564218Y291394D01*
X563419Y290492D01*
X562567Y289640D01*
X561665Y288841D01*
X560717Y288098D01*
X559725Y287413D01*
X558694Y286790D01*
X557627Y286230D01*
X556528Y285735D01*
X555401Y285308D01*
X554251Y284950D01*
X553081Y284661D01*
X551895Y284444D01*
X550699Y284299D01*
X549497Y284226D01*
X548292Y284226D01*
X547089Y284299D01*
X545893Y284444D01*
X544707Y284661D01*
X543537Y284950D01*
X542387Y285308D01*
X541260Y285735D01*
X540161Y286230D01*
X539094Y286790D01*
X538063Y287413D01*
X537072Y288098D01*
X536123Y288841D01*
X535221Y289640D01*
X534369Y290492D01*
X533570Y291394D01*
X532827Y292343D01*
X532142Y293334D01*
X531519Y294365D01*
X530959Y295432D01*
X530464Y296531D01*
X530037Y297658D01*
X529679Y298808D01*
X529390Y299978D01*
X529173Y301164D01*
X529028Y302360D01*
X528955Y303563D01*
X528955Y304768D01*
X529028Y305970D01*
X529173Y307166D01*
X529390Y308352D01*
X529679Y309522D01*
X530037Y310672D01*
X530464Y311799D01*
X530959Y312898D01*
X531519Y313965D01*
X532142Y314996D01*
X532827Y315988D01*
X533570Y316936D01*
X534369Y317838D01*
X535221Y318690D01*
X536123Y319489D01*
X537072Y320232D01*
X538063Y320917D01*
X539094Y321540D01*
X540161Y322100D01*
X541260Y322595D01*
X542387Y323022D01*
X543537Y323380D01*
X544707Y323669D01*
X545893Y323886D01*
X547089Y324031D01*
X548292Y324104D01*
X549497Y324104D01*
X550699Y324031D01*
X551895Y323886D01*
X553081Y323669D01*
X554251Y323380D01*
X555401Y323022D01*
X556528Y322595D01*
X557627Y322100D01*
X558694Y321540D01*
X559725Y320917D01*
X560717Y320232D01*
X561665Y319489D01*
X562567Y318690D01*
X563419Y317838D01*
X564218Y316936D01*
X564961Y315988D01*
X565646Y314996D01*
X566269Y313965D01*
X566829Y312898D01*
X567324Y311799D01*
X567751Y310672D01*
X568109Y309522D01*
X568398Y308352D01*
X568615Y307166D01*
X568760Y305970D01*
X568833Y304768D01*
X568833Y303563D01*
X568833Y38514D02*
X568760Y37311D01*
X568615Y36115D01*
X568398Y34929D01*
X568109Y33759D01*
X567751Y32609D01*
X567324Y31482D01*
X566829Y30383D01*
X566269Y29316D01*
X565646Y28285D01*
X564961Y27294D01*
X564218Y26345D01*
X563419Y25443D01*
X562567Y24591D01*
X561665Y23792D01*
X560717Y23049D01*
X559725Y22364D01*
X558694Y21741D01*
X557627Y21181D01*
X556528Y20686D01*
X555401Y20259D01*
X554251Y19901D01*
X553081Y19612D01*
X551895Y19395D01*
X550699Y19250D01*
X549497Y19177D01*
X548292Y19177D01*
X547089Y19250D01*
X545893Y19395D01*
X544707Y19612D01*
X543537Y19901D01*
X542387Y20259D01*
X541260Y20686D01*
X540161Y21181D01*
X539094Y21741D01*
X538063Y22364D01*
X537072Y23049D01*
X536123Y23792D01*
X535221Y24591D01*
X534369Y25443D01*
X533570Y26345D01*
X532827Y27294D01*
X532142Y28285D01*
X531519Y29316D01*
X530959Y30383D01*
X530464Y31482D01*
X530037Y32609D01*
X529679Y33759D01*
X529390Y34929D01*
X529173Y36115D01*
X529028Y37311D01*
X528955Y38514D01*
X528955Y39719D01*
X529028Y40921D01*
X529173Y42117D01*
X529390Y43303D01*
X529679Y44473D01*
X530037Y45623D01*
X530464Y46750D01*
X530959Y47849D01*
X531519Y48916D01*
X532142Y49947D01*
X532827Y50939D01*
X533570Y51887D01*
X534369Y52789D01*
X535221Y53641D01*
X536123Y54440D01*
X537072Y55183D01*
X538063Y55868D01*
X539094Y56491D01*
X540161Y57051D01*
X541260Y57546D01*
X542387Y57973D01*
X543537Y58331D01*
X544707Y58620D01*
X545893Y58837D01*
X547089Y58982D01*
X548292Y59055D01*
X549497Y59055D01*
X550699Y58982D01*
X551895Y58837D01*
X553081Y58620D01*
X554251Y58331D01*
X555401Y57973D01*
X556528Y57546D01*
X557627Y57051D01*
X558694Y56491D01*
X559725Y55868D01*
X560717Y55183D01*
X561665Y54440D01*
X562567Y53641D01*
X563419Y52789D01*
X564218Y51887D01*
X564961Y50939D01*
X565646Y49947D01*
X566269Y48916D01*
X566829Y47849D01*
X567324Y46750D01*
X567751Y45623D01*
X568109Y44473D01*
X568398Y43303D01*
X568615Y42117D01*
X568760Y40921D01*
X568833Y39719D01*
X568833Y38514D01*
X64008Y303563D02*
X63935Y302360D01*
X63790Y301164D01*
X63573Y299978D01*
X63284Y298808D01*
X62926Y297658D01*
X62499Y296531D01*
X62004Y295432D01*
X61444Y294365D01*
X60821Y293334D01*
X60136Y292343D01*
X59393Y291394D01*
X58594Y290492D01*
X57742Y289640D01*
X56840Y288841D01*
X55892Y288098D01*
X54900Y287413D01*
X53869Y286790D01*
X52802Y286230D01*
X51703Y285735D01*
X50576Y285308D01*
X49426Y284950D01*
X48256Y284661D01*
X47070Y284444D01*
X45874Y284299D01*
X44672Y284226D01*
X43467Y284226D01*
X42264Y284299D01*
X41068Y284444D01*
X39882Y284661D01*
X38712Y284950D01*
X37562Y285308D01*
X36435Y285735D01*
X35336Y286230D01*
X34269Y286790D01*
X33238Y287413D01*
X32247Y288098D01*
X31298Y288841D01*
X30396Y289640D01*
X29544Y290492D01*
X28745Y291394D01*
X28002Y292343D01*
X27317Y293334D01*
X26694Y294365D01*
X26134Y295432D01*
X25639Y296531D01*
X25212Y297658D01*
X24854Y298808D01*
X24565Y299978D01*
X24348Y301164D01*
X24203Y302360D01*
X24130Y303563D01*
X24130Y304768D01*
X24203Y305970D01*
X24348Y307166D01*
X24565Y308352D01*
X24854Y309522D01*
X25212Y310672D01*
X25639Y311799D01*
X26134Y312898D01*
X26694Y313965D01*
X27317Y314996D01*
X28002Y315988D01*
X28745Y316936D01*
X29544Y317838D01*
X30396Y318690D01*
X31298Y319489D01*
X32247Y320232D01*
X33238Y320917D01*
X34269Y321540D01*
X35336Y322100D01*
X36435Y322595D01*
X37562Y323022D01*
X38712Y323380D01*
X39882Y323669D01*
X41068Y323886D01*
X42264Y324031D01*
X43467Y324104D01*
X44672Y324104D01*
X45874Y324031D01*
X47070Y323886D01*
X48256Y323669D01*
X49426Y323380D01*
X50576Y323022D01*
X51703Y322595D01*
X52802Y322100D01*
X53869Y321540D01*
X54900Y320917D01*
X55892Y320232D01*
X56840Y319489D01*
X57742Y318690D01*
X58594Y317838D01*
X59393Y316936D01*
X60136Y315988D01*
X60821Y314996D01*
X61444Y313965D01*
X62004Y312898D01*
X62499Y311799D01*
X62926Y310672D01*
X63284Y309522D01*
X63573Y308352D01*
X63790Y307166D01*
X63935Y305970D01*
X64008Y304768D01*
X64008Y303563D01*
X64008Y38514D02*
X63935Y37311D01*
X63790Y36115D01*
X63573Y34929D01*
X63284Y33759D01*
X62926Y32609D01*
X62499Y31482D01*
X62004Y30383D01*
X61444Y29316D01*
X60821Y28285D01*
X60136Y27294D01*
X59393Y26345D01*
X58594Y25443D01*
X57742Y24591D01*
X56840Y23792D01*
X55892Y23049D01*
X54900Y22364D01*
X53869Y21741D01*
X52802Y21181D01*
X51703Y20686D01*
X50576Y20259D01*
X49426Y19901D01*
X48256Y19612D01*
X47070Y19395D01*
X45874Y19250D01*
X44672Y19177D01*
X43467Y19177D01*
X42264Y19250D01*
X41068Y19395D01*
X39882Y19612D01*
X38712Y19901D01*
X37562Y20259D01*
X36435Y20686D01*
X35336Y21181D01*
X34269Y21741D01*
X33238Y22364D01*
X32247Y23049D01*
X31298Y23792D01*
X30396Y24591D01*
X29544Y25443D01*
X28745Y26345D01*
X28002Y27294D01*
X27317Y28285D01*
X26694Y29316D01*
X26134Y30383D01*
X25639Y31482D01*
X25212Y32609D01*
X24854Y33759D01*
X24565Y34929D01*
X24348Y36115D01*
X24203Y37311D01*
X24130Y38514D01*
X24130Y39719D01*
X24203Y40921D01*
X24348Y42117D01*
X24565Y43303D01*
X24854Y44473D01*
X25212Y45623D01*
X25639Y46750D01*
X26134Y47849D01*
X26694Y48916D01*
X27317Y49947D01*
X28002Y50939D01*
X28745Y51887D01*
X29544Y52789D01*
X30396Y53641D01*
X31298Y54440D01*
X32247Y55183D01*
X33238Y55868D01*
X34269Y56491D01*
X35336Y57051D01*
X36435Y57546D01*
X37562Y57973D01*
X38712Y58331D01*
X39882Y58620D01*
X41068Y58837D01*
X42264Y58982D01*
X43467Y59055D01*
X44672Y59055D01*
X45874Y58982D01*
X47070Y58837D01*
X48256Y58620D01*
X49426Y58331D01*
X50576Y57973D01*
X51703Y57546D01*
X52802Y57051D01*
X53869Y56491D01*
X54900Y55868D01*
X55892Y55183D01*
X56840Y54440D01*
X57742Y53641D01*
X58594Y52789D01*
X59393Y51887D01*
X60136Y50939D01*
X60821Y49947D01*
X61444Y48916D01*
X62004Y47849D01*
X62499Y46750D01*
X62926Y45623D01*
X63284Y44473D01*
X63573Y43303D01*
X63790Y42117D01*
X63935Y40921D01*
X64008Y39719D01*
X64008Y38514D01*
M02*
