G04 EAGLE Gerber RS-274X export*
G75*
%MOMM*%
%FSLAX34Y34*%
%LPD*%
%INSilkscreen Top*%
%IPPOS*%
%AMOC8*
5,1,8,0,0,1.08239X$1,22.5*%
G01*
%ADD10C,0.152400*%
%ADD11C,0.025400*%
%ADD12C,0.076200*%
%ADD13C,0.127000*%
%ADD14C,0.101600*%
%ADD15C,0.150000*%
%ADD16C,0.500000*%
%ADD17C,0.200000*%


D10*
X555498Y157988D02*
X571754Y157988D01*
X571754Y165213D01*
X571754Y171535D02*
X571754Y178760D01*
X571754Y171535D02*
X555498Y171535D01*
X555498Y178760D01*
X562723Y176954D02*
X562723Y171535D01*
X555498Y185052D02*
X571754Y185052D01*
X555498Y185052D02*
X555498Y189568D01*
X555500Y189699D01*
X555506Y189831D01*
X555515Y189962D01*
X555529Y190092D01*
X555546Y190223D01*
X555567Y190352D01*
X555591Y190481D01*
X555620Y190609D01*
X555652Y190737D01*
X555688Y190863D01*
X555727Y190988D01*
X555770Y191113D01*
X555817Y191235D01*
X555867Y191357D01*
X555921Y191477D01*
X555978Y191595D01*
X556039Y191711D01*
X556103Y191826D01*
X556170Y191939D01*
X556241Y192050D01*
X556315Y192158D01*
X556392Y192265D01*
X556472Y192369D01*
X556555Y192471D01*
X556640Y192570D01*
X556729Y192667D01*
X556821Y192761D01*
X556915Y192853D01*
X557012Y192942D01*
X557111Y193027D01*
X557213Y193110D01*
X557317Y193190D01*
X557424Y193267D01*
X557532Y193341D01*
X557643Y193412D01*
X557756Y193479D01*
X557871Y193543D01*
X557987Y193604D01*
X558105Y193661D01*
X558225Y193715D01*
X558347Y193765D01*
X558469Y193812D01*
X558594Y193855D01*
X558719Y193894D01*
X558845Y193930D01*
X558973Y193962D01*
X559101Y193991D01*
X559230Y194015D01*
X559359Y194036D01*
X559490Y194053D01*
X559620Y194067D01*
X559751Y194076D01*
X559883Y194082D01*
X560014Y194084D01*
X560014Y194083D02*
X567238Y194083D01*
X567238Y194084D02*
X567369Y194082D01*
X567501Y194076D01*
X567632Y194067D01*
X567762Y194053D01*
X567893Y194036D01*
X568022Y194015D01*
X568151Y193991D01*
X568279Y193962D01*
X568407Y193930D01*
X568533Y193894D01*
X568658Y193855D01*
X568783Y193812D01*
X568905Y193765D01*
X569027Y193715D01*
X569147Y193661D01*
X569265Y193604D01*
X569381Y193543D01*
X569496Y193479D01*
X569609Y193412D01*
X569720Y193341D01*
X569828Y193267D01*
X569935Y193190D01*
X570039Y193110D01*
X570141Y193027D01*
X570240Y192942D01*
X570337Y192853D01*
X570431Y192761D01*
X570523Y192667D01*
X570612Y192570D01*
X570697Y192471D01*
X570780Y192369D01*
X570860Y192265D01*
X570937Y192158D01*
X571011Y192050D01*
X571082Y191939D01*
X571149Y191826D01*
X571213Y191711D01*
X571274Y191595D01*
X571331Y191477D01*
X571385Y191357D01*
X571435Y191235D01*
X571482Y191113D01*
X571525Y190988D01*
X571564Y190863D01*
X571600Y190737D01*
X571632Y190609D01*
X571661Y190481D01*
X571685Y190352D01*
X571706Y190222D01*
X571723Y190092D01*
X571737Y189962D01*
X571746Y189831D01*
X571752Y189699D01*
X571754Y189568D01*
X571754Y185052D01*
D11*
X46905Y191135D02*
X45847Y191135D01*
X46905Y191135D02*
X46969Y191137D01*
X47033Y191143D01*
X47096Y191152D01*
X47158Y191166D01*
X47220Y191183D01*
X47280Y191204D01*
X47339Y191228D01*
X47397Y191256D01*
X47452Y191288D01*
X47506Y191322D01*
X47557Y191360D01*
X47607Y191401D01*
X47653Y191445D01*
X47697Y191491D01*
X47738Y191541D01*
X47776Y191592D01*
X47810Y191646D01*
X47842Y191701D01*
X47870Y191759D01*
X47894Y191818D01*
X47915Y191878D01*
X47932Y191940D01*
X47946Y192002D01*
X47955Y192065D01*
X47961Y192129D01*
X47963Y192193D01*
X47961Y192257D01*
X47955Y192321D01*
X47946Y192384D01*
X47932Y192446D01*
X47915Y192508D01*
X47894Y192568D01*
X47870Y192627D01*
X47842Y192685D01*
X47810Y192740D01*
X47776Y192794D01*
X47738Y192845D01*
X47697Y192895D01*
X47653Y192941D01*
X47607Y192985D01*
X47557Y193026D01*
X47506Y193064D01*
X47452Y193098D01*
X47397Y193130D01*
X47339Y193158D01*
X47280Y193182D01*
X47220Y193203D01*
X47158Y193220D01*
X47096Y193234D01*
X47033Y193243D01*
X46969Y193249D01*
X46905Y193251D01*
X47117Y194945D02*
X45847Y194945D01*
X47117Y194945D02*
X47174Y194943D01*
X47230Y194937D01*
X47286Y194928D01*
X47341Y194915D01*
X47395Y194898D01*
X47448Y194878D01*
X47499Y194854D01*
X47549Y194827D01*
X47596Y194796D01*
X47642Y194763D01*
X47685Y194726D01*
X47726Y194687D01*
X47764Y194645D01*
X47799Y194600D01*
X47831Y194554D01*
X47860Y194505D01*
X47885Y194455D01*
X47907Y194402D01*
X47926Y194349D01*
X47941Y194294D01*
X47952Y194239D01*
X47960Y194183D01*
X47964Y194126D01*
X47964Y194070D01*
X47960Y194013D01*
X47952Y193957D01*
X47941Y193902D01*
X47926Y193847D01*
X47907Y193794D01*
X47885Y193741D01*
X47860Y193691D01*
X47831Y193642D01*
X47799Y193596D01*
X47764Y193551D01*
X47726Y193509D01*
X47685Y193470D01*
X47642Y193433D01*
X47596Y193400D01*
X47549Y193369D01*
X47499Y193342D01*
X47448Y193318D01*
X47395Y193298D01*
X47341Y193281D01*
X47286Y193268D01*
X47230Y193259D01*
X47174Y193253D01*
X47117Y193251D01*
X47117Y193252D02*
X46270Y193252D01*
X49293Y194945D02*
X50563Y191135D01*
X51833Y194945D01*
X53162Y191135D02*
X54220Y191135D01*
X54284Y191137D01*
X54348Y191143D01*
X54411Y191152D01*
X54473Y191166D01*
X54535Y191183D01*
X54595Y191204D01*
X54654Y191228D01*
X54712Y191256D01*
X54767Y191288D01*
X54821Y191322D01*
X54872Y191360D01*
X54922Y191401D01*
X54968Y191445D01*
X55012Y191491D01*
X55053Y191541D01*
X55091Y191592D01*
X55125Y191646D01*
X55157Y191701D01*
X55185Y191759D01*
X55209Y191818D01*
X55230Y191878D01*
X55247Y191940D01*
X55261Y192002D01*
X55270Y192065D01*
X55276Y192129D01*
X55278Y192193D01*
X55276Y192257D01*
X55270Y192321D01*
X55261Y192384D01*
X55247Y192446D01*
X55230Y192508D01*
X55209Y192568D01*
X55185Y192627D01*
X55157Y192685D01*
X55125Y192740D01*
X55091Y192794D01*
X55053Y192845D01*
X55012Y192895D01*
X54968Y192941D01*
X54922Y192985D01*
X54872Y193026D01*
X54821Y193064D01*
X54767Y193098D01*
X54712Y193130D01*
X54654Y193158D01*
X54595Y193182D01*
X54535Y193203D01*
X54473Y193220D01*
X54411Y193234D01*
X54348Y193243D01*
X54284Y193249D01*
X54220Y193251D01*
X54432Y194945D02*
X53162Y194945D01*
X54432Y194945D02*
X54489Y194943D01*
X54545Y194937D01*
X54601Y194928D01*
X54656Y194915D01*
X54710Y194898D01*
X54763Y194878D01*
X54814Y194854D01*
X54864Y194827D01*
X54911Y194796D01*
X54957Y194763D01*
X55000Y194726D01*
X55041Y194687D01*
X55079Y194645D01*
X55114Y194600D01*
X55146Y194554D01*
X55175Y194505D01*
X55200Y194455D01*
X55222Y194402D01*
X55241Y194349D01*
X55256Y194294D01*
X55267Y194239D01*
X55275Y194183D01*
X55279Y194126D01*
X55279Y194070D01*
X55275Y194013D01*
X55267Y193957D01*
X55256Y193902D01*
X55241Y193847D01*
X55222Y193794D01*
X55200Y193741D01*
X55175Y193691D01*
X55146Y193642D01*
X55114Y193596D01*
X55079Y193551D01*
X55041Y193509D01*
X55000Y193470D01*
X54957Y193433D01*
X54911Y193400D01*
X54864Y193369D01*
X54814Y193342D01*
X54763Y193318D01*
X54710Y193298D01*
X54656Y193281D01*
X54601Y193268D01*
X54545Y193259D01*
X54489Y193253D01*
X54432Y193251D01*
X54432Y193252D02*
X53585Y193252D01*
X45339Y170307D02*
X45339Y166497D01*
X45339Y170307D02*
X46397Y170307D01*
X46461Y170305D01*
X46525Y170299D01*
X46588Y170290D01*
X46650Y170276D01*
X46712Y170259D01*
X46772Y170238D01*
X46831Y170214D01*
X46889Y170186D01*
X46944Y170154D01*
X46998Y170120D01*
X47049Y170082D01*
X47099Y170041D01*
X47145Y169997D01*
X47189Y169951D01*
X47230Y169901D01*
X47268Y169850D01*
X47302Y169796D01*
X47334Y169741D01*
X47362Y169683D01*
X47386Y169624D01*
X47407Y169564D01*
X47424Y169502D01*
X47438Y169440D01*
X47447Y169377D01*
X47453Y169313D01*
X47455Y169249D01*
X47453Y169185D01*
X47447Y169121D01*
X47438Y169058D01*
X47424Y168996D01*
X47407Y168934D01*
X47386Y168874D01*
X47362Y168815D01*
X47334Y168757D01*
X47302Y168702D01*
X47268Y168648D01*
X47230Y168597D01*
X47189Y168547D01*
X47145Y168501D01*
X47099Y168457D01*
X47049Y168416D01*
X46998Y168378D01*
X46944Y168344D01*
X46889Y168312D01*
X46831Y168284D01*
X46772Y168260D01*
X46712Y168239D01*
X46650Y168222D01*
X46588Y168208D01*
X46525Y168199D01*
X46461Y168193D01*
X46397Y168191D01*
X46397Y168190D02*
X45339Y168190D01*
X46609Y168190D02*
X47456Y166497D01*
X48764Y166497D02*
X51304Y170307D01*
X48764Y170307D02*
X51304Y166497D01*
X52755Y166497D02*
X52755Y170307D01*
X53813Y170307D01*
X53877Y170305D01*
X53941Y170299D01*
X54004Y170290D01*
X54066Y170276D01*
X54128Y170259D01*
X54188Y170238D01*
X54247Y170214D01*
X54305Y170186D01*
X54360Y170154D01*
X54414Y170120D01*
X54465Y170082D01*
X54515Y170041D01*
X54561Y169997D01*
X54605Y169951D01*
X54646Y169901D01*
X54684Y169850D01*
X54718Y169796D01*
X54750Y169741D01*
X54778Y169683D01*
X54802Y169624D01*
X54823Y169564D01*
X54840Y169502D01*
X54854Y169440D01*
X54863Y169377D01*
X54869Y169313D01*
X54871Y169249D01*
X54872Y169249D02*
X54872Y167555D01*
X54871Y167555D02*
X54869Y167491D01*
X54863Y167427D01*
X54854Y167364D01*
X54840Y167302D01*
X54823Y167240D01*
X54802Y167180D01*
X54778Y167121D01*
X54750Y167063D01*
X54718Y167008D01*
X54684Y166954D01*
X54646Y166903D01*
X54605Y166853D01*
X54561Y166807D01*
X54515Y166763D01*
X54465Y166722D01*
X54414Y166684D01*
X54360Y166650D01*
X54305Y166618D01*
X54247Y166590D01*
X54188Y166566D01*
X54128Y166545D01*
X54066Y166528D01*
X54004Y166514D01*
X53941Y166505D01*
X53877Y166499D01*
X53813Y166497D01*
X52755Y166497D01*
X46905Y145415D02*
X46905Y141605D01*
X45847Y145415D02*
X47964Y145415D01*
X51589Y145415D02*
X49049Y141605D01*
X51589Y141605D02*
X49049Y145415D01*
X53040Y145415D02*
X53040Y141605D01*
X53040Y145415D02*
X54099Y145415D01*
X54163Y145413D01*
X54227Y145407D01*
X54290Y145398D01*
X54352Y145384D01*
X54414Y145367D01*
X54474Y145346D01*
X54533Y145322D01*
X54591Y145294D01*
X54646Y145262D01*
X54700Y145228D01*
X54751Y145190D01*
X54801Y145149D01*
X54847Y145105D01*
X54891Y145059D01*
X54932Y145009D01*
X54970Y144958D01*
X55004Y144904D01*
X55036Y144849D01*
X55064Y144791D01*
X55088Y144732D01*
X55109Y144672D01*
X55126Y144610D01*
X55140Y144548D01*
X55149Y144485D01*
X55155Y144421D01*
X55157Y144357D01*
X55157Y142663D01*
X55155Y142599D01*
X55149Y142535D01*
X55140Y142472D01*
X55126Y142410D01*
X55109Y142348D01*
X55088Y142288D01*
X55064Y142229D01*
X55036Y142171D01*
X55004Y142116D01*
X54970Y142062D01*
X54932Y142011D01*
X54891Y141961D01*
X54847Y141915D01*
X54801Y141871D01*
X54751Y141830D01*
X54700Y141792D01*
X54646Y141758D01*
X54591Y141726D01*
X54533Y141698D01*
X54474Y141674D01*
X54414Y141653D01*
X54352Y141636D01*
X54290Y141622D01*
X54227Y141613D01*
X54163Y141607D01*
X54099Y141605D01*
X53040Y141605D01*
X48472Y116290D02*
X47837Y116290D01*
X48472Y116290D02*
X48472Y114173D01*
X47202Y114173D01*
X47147Y114175D01*
X47091Y114180D01*
X47037Y114189D01*
X46983Y114202D01*
X46930Y114218D01*
X46878Y114237D01*
X46827Y114260D01*
X46779Y114286D01*
X46731Y114316D01*
X46686Y114348D01*
X46644Y114383D01*
X46603Y114421D01*
X46565Y114462D01*
X46530Y114504D01*
X46498Y114549D01*
X46468Y114597D01*
X46442Y114645D01*
X46419Y114696D01*
X46400Y114748D01*
X46384Y114801D01*
X46371Y114855D01*
X46362Y114909D01*
X46357Y114965D01*
X46355Y115020D01*
X46355Y117136D01*
X46357Y117194D01*
X46363Y117251D01*
X46373Y117308D01*
X46386Y117365D01*
X46404Y117420D01*
X46425Y117473D01*
X46450Y117526D01*
X46478Y117576D01*
X46510Y117624D01*
X46545Y117671D01*
X46583Y117714D01*
X46624Y117755D01*
X46667Y117793D01*
X46714Y117828D01*
X46762Y117860D01*
X46812Y117888D01*
X46865Y117913D01*
X46918Y117934D01*
X46973Y117952D01*
X47030Y117965D01*
X47087Y117975D01*
X47144Y117981D01*
X47202Y117983D01*
X48472Y117983D01*
X50256Y117983D02*
X50256Y114173D01*
X52373Y114173D02*
X50256Y117983D01*
X52373Y117983D02*
X52373Y114173D01*
X54158Y114173D02*
X54158Y117983D01*
X55216Y117983D01*
X55280Y117981D01*
X55344Y117975D01*
X55407Y117966D01*
X55469Y117952D01*
X55531Y117935D01*
X55591Y117914D01*
X55650Y117890D01*
X55708Y117862D01*
X55763Y117830D01*
X55817Y117796D01*
X55868Y117758D01*
X55918Y117717D01*
X55964Y117673D01*
X56008Y117627D01*
X56049Y117577D01*
X56087Y117526D01*
X56121Y117472D01*
X56153Y117417D01*
X56181Y117359D01*
X56205Y117300D01*
X56226Y117240D01*
X56243Y117178D01*
X56257Y117116D01*
X56266Y117053D01*
X56272Y116989D01*
X56274Y116925D01*
X56274Y115231D01*
X56272Y115167D01*
X56266Y115103D01*
X56257Y115040D01*
X56243Y114978D01*
X56226Y114916D01*
X56205Y114856D01*
X56181Y114797D01*
X56153Y114739D01*
X56121Y114684D01*
X56087Y114630D01*
X56049Y114579D01*
X56008Y114529D01*
X55964Y114483D01*
X55918Y114439D01*
X55868Y114398D01*
X55817Y114360D01*
X55763Y114326D01*
X55708Y114294D01*
X55650Y114266D01*
X55591Y114242D01*
X55531Y114221D01*
X55469Y114204D01*
X55407Y114190D01*
X55344Y114181D01*
X55280Y114175D01*
X55216Y114173D01*
X54158Y114173D01*
D10*
X467360Y213360D02*
X467360Y243840D01*
X467360Y213360D02*
X523240Y213360D01*
X523240Y243840D01*
X467360Y243840D01*
D12*
X529209Y217300D02*
X530846Y215254D01*
X529209Y217300D02*
X536575Y217300D01*
X536575Y215254D02*
X536575Y219347D01*
X531051Y226662D02*
X530966Y226660D01*
X530881Y226654D01*
X530797Y226644D01*
X530713Y226631D01*
X530629Y226613D01*
X530547Y226592D01*
X530466Y226567D01*
X530386Y226538D01*
X530307Y226505D01*
X530230Y226469D01*
X530155Y226429D01*
X530081Y226386D01*
X530010Y226340D01*
X529941Y226290D01*
X529874Y226237D01*
X529810Y226181D01*
X529749Y226122D01*
X529690Y226061D01*
X529634Y225997D01*
X529581Y225930D01*
X529531Y225861D01*
X529485Y225790D01*
X529442Y225716D01*
X529402Y225641D01*
X529366Y225564D01*
X529333Y225485D01*
X529304Y225405D01*
X529279Y225324D01*
X529258Y225242D01*
X529240Y225158D01*
X529227Y225074D01*
X529217Y224990D01*
X529211Y224905D01*
X529209Y224820D01*
X529211Y224724D01*
X529217Y224628D01*
X529227Y224533D01*
X529240Y224438D01*
X529258Y224343D01*
X529279Y224250D01*
X529304Y224157D01*
X529333Y224066D01*
X529365Y223975D01*
X529401Y223886D01*
X529441Y223799D01*
X529484Y223713D01*
X529530Y223629D01*
X529580Y223547D01*
X529634Y223467D01*
X529690Y223390D01*
X529750Y223315D01*
X529812Y223242D01*
X529878Y223172D01*
X529946Y223104D01*
X530017Y223039D01*
X530090Y222978D01*
X530166Y222919D01*
X530245Y222863D01*
X530325Y222811D01*
X530408Y222762D01*
X530492Y222716D01*
X530578Y222674D01*
X530666Y222636D01*
X530755Y222601D01*
X530846Y222569D01*
X532483Y226048D02*
X532424Y226108D01*
X532362Y226165D01*
X532298Y226220D01*
X532231Y226271D01*
X532162Y226320D01*
X532092Y226366D01*
X532019Y226409D01*
X531945Y226449D01*
X531869Y226485D01*
X531791Y226518D01*
X531712Y226548D01*
X531632Y226575D01*
X531551Y226598D01*
X531469Y226617D01*
X531387Y226633D01*
X531303Y226646D01*
X531219Y226655D01*
X531135Y226660D01*
X531051Y226662D01*
X532483Y226048D02*
X536575Y222570D01*
X536575Y226662D01*
X536575Y231931D02*
X529209Y229476D01*
X529209Y234386D02*
X536575Y231931D01*
X533710Y237278D02*
X533710Y242189D01*
X531255Y239734D02*
X536166Y239734D01*
D11*
X334109Y66675D02*
X333488Y66675D01*
X333439Y66677D01*
X333391Y66683D01*
X333343Y66692D01*
X333296Y66705D01*
X333250Y66722D01*
X333206Y66743D01*
X333164Y66767D01*
X333123Y66794D01*
X333085Y66824D01*
X333049Y66857D01*
X333016Y66893D01*
X332986Y66931D01*
X332959Y66972D01*
X332935Y67014D01*
X332914Y67058D01*
X332897Y67104D01*
X332884Y67151D01*
X332875Y67199D01*
X332869Y67247D01*
X332867Y67296D01*
X332867Y68848D01*
X332869Y68897D01*
X332875Y68945D01*
X332884Y68993D01*
X332897Y69040D01*
X332914Y69086D01*
X332935Y69130D01*
X332959Y69172D01*
X332986Y69213D01*
X333016Y69251D01*
X333049Y69287D01*
X333085Y69320D01*
X333123Y69350D01*
X333164Y69377D01*
X333206Y69401D01*
X333250Y69422D01*
X333296Y69439D01*
X333343Y69452D01*
X333391Y69461D01*
X333439Y69467D01*
X333488Y69469D01*
X334109Y69469D01*
X335161Y68848D02*
X335937Y69469D01*
X335937Y66675D01*
X335161Y66675D02*
X336713Y66675D01*
X334871Y40767D02*
X334250Y40767D01*
X334201Y40769D01*
X334153Y40775D01*
X334105Y40784D01*
X334058Y40797D01*
X334012Y40814D01*
X333968Y40835D01*
X333926Y40859D01*
X333885Y40886D01*
X333847Y40916D01*
X333811Y40949D01*
X333778Y40985D01*
X333748Y41023D01*
X333721Y41064D01*
X333697Y41106D01*
X333676Y41150D01*
X333659Y41196D01*
X333646Y41243D01*
X333637Y41291D01*
X333631Y41339D01*
X333629Y41388D01*
X333629Y42940D01*
X333631Y42989D01*
X333637Y43037D01*
X333646Y43085D01*
X333659Y43132D01*
X333676Y43178D01*
X333697Y43222D01*
X333721Y43264D01*
X333748Y43305D01*
X333778Y43343D01*
X333811Y43379D01*
X333847Y43412D01*
X333885Y43442D01*
X333926Y43469D01*
X333968Y43493D01*
X334012Y43514D01*
X334058Y43531D01*
X334105Y43544D01*
X334153Y43553D01*
X334201Y43559D01*
X334250Y43561D01*
X334871Y43561D01*
X336777Y43562D02*
X336827Y43560D01*
X336876Y43555D01*
X336926Y43546D01*
X336974Y43534D01*
X337021Y43518D01*
X337067Y43499D01*
X337112Y43476D01*
X337155Y43451D01*
X337196Y43423D01*
X337235Y43391D01*
X337271Y43357D01*
X337305Y43321D01*
X337337Y43282D01*
X337365Y43241D01*
X337390Y43198D01*
X337413Y43153D01*
X337432Y43107D01*
X337448Y43060D01*
X337460Y43012D01*
X337469Y42962D01*
X337474Y42913D01*
X337476Y42863D01*
X336777Y43561D02*
X336721Y43559D01*
X336664Y43554D01*
X336609Y43545D01*
X336554Y43533D01*
X336500Y43517D01*
X336447Y43498D01*
X336395Y43476D01*
X336345Y43450D01*
X336296Y43421D01*
X336249Y43389D01*
X336205Y43355D01*
X336163Y43318D01*
X336123Y43278D01*
X336085Y43235D01*
X336051Y43191D01*
X336019Y43144D01*
X335991Y43096D01*
X335965Y43045D01*
X335943Y42993D01*
X335924Y42940D01*
X337242Y42320D02*
X337278Y42356D01*
X337311Y42394D01*
X337341Y42435D01*
X337368Y42478D01*
X337393Y42522D01*
X337414Y42568D01*
X337433Y42615D01*
X337448Y42663D01*
X337460Y42712D01*
X337468Y42762D01*
X337473Y42812D01*
X337475Y42863D01*
X337243Y42319D02*
X335923Y40767D01*
X337475Y40767D01*
X333601Y119253D02*
X332980Y119253D01*
X332931Y119255D01*
X332883Y119261D01*
X332835Y119270D01*
X332788Y119283D01*
X332742Y119300D01*
X332698Y119321D01*
X332656Y119345D01*
X332615Y119372D01*
X332577Y119402D01*
X332541Y119435D01*
X332508Y119471D01*
X332478Y119509D01*
X332451Y119550D01*
X332427Y119592D01*
X332406Y119636D01*
X332389Y119682D01*
X332376Y119729D01*
X332367Y119777D01*
X332361Y119825D01*
X332359Y119874D01*
X332359Y121426D01*
X332361Y121475D01*
X332367Y121523D01*
X332376Y121571D01*
X332389Y121618D01*
X332406Y121664D01*
X332427Y121708D01*
X332451Y121750D01*
X332478Y121791D01*
X332508Y121829D01*
X332541Y121865D01*
X332577Y121898D01*
X332615Y121928D01*
X332656Y121955D01*
X332698Y121979D01*
X332742Y122000D01*
X332788Y122017D01*
X332835Y122030D01*
X332883Y122039D01*
X332931Y122045D01*
X332980Y122047D01*
X333601Y122047D01*
X334653Y119253D02*
X335429Y119253D01*
X335484Y119255D01*
X335539Y119261D01*
X335594Y119271D01*
X335648Y119284D01*
X335700Y119302D01*
X335751Y119323D01*
X335801Y119348D01*
X335849Y119376D01*
X335894Y119408D01*
X335937Y119443D01*
X335978Y119480D01*
X336015Y119521D01*
X336050Y119564D01*
X336082Y119609D01*
X336110Y119657D01*
X336135Y119707D01*
X336156Y119758D01*
X336174Y119810D01*
X336187Y119864D01*
X336197Y119919D01*
X336203Y119974D01*
X336205Y120029D01*
X336203Y120084D01*
X336197Y120139D01*
X336187Y120194D01*
X336174Y120248D01*
X336156Y120300D01*
X336135Y120351D01*
X336110Y120401D01*
X336082Y120449D01*
X336050Y120494D01*
X336015Y120537D01*
X335978Y120578D01*
X335937Y120615D01*
X335894Y120650D01*
X335849Y120682D01*
X335801Y120710D01*
X335751Y120735D01*
X335700Y120756D01*
X335648Y120774D01*
X335594Y120787D01*
X335539Y120797D01*
X335484Y120803D01*
X335429Y120805D01*
X335584Y122047D02*
X334653Y122047D01*
X335584Y122047D02*
X335633Y122045D01*
X335681Y122039D01*
X335729Y122030D01*
X335776Y122017D01*
X335822Y122000D01*
X335866Y121979D01*
X335908Y121955D01*
X335949Y121928D01*
X335987Y121898D01*
X336023Y121865D01*
X336056Y121829D01*
X336086Y121791D01*
X336113Y121750D01*
X336137Y121708D01*
X336158Y121664D01*
X336175Y121618D01*
X336188Y121571D01*
X336197Y121523D01*
X336203Y121475D01*
X336205Y121426D01*
X336203Y121377D01*
X336197Y121329D01*
X336188Y121281D01*
X336175Y121234D01*
X336158Y121188D01*
X336137Y121144D01*
X336113Y121102D01*
X336086Y121061D01*
X336056Y121023D01*
X336023Y120987D01*
X335987Y120954D01*
X335949Y120924D01*
X335908Y120897D01*
X335866Y120873D01*
X335822Y120852D01*
X335776Y120835D01*
X335729Y120822D01*
X335681Y120813D01*
X335633Y120807D01*
X335584Y120805D01*
X334964Y120805D01*
X334363Y170561D02*
X333742Y170561D01*
X333693Y170563D01*
X333645Y170569D01*
X333597Y170578D01*
X333550Y170591D01*
X333504Y170608D01*
X333460Y170629D01*
X333418Y170653D01*
X333377Y170680D01*
X333339Y170710D01*
X333303Y170743D01*
X333270Y170779D01*
X333240Y170817D01*
X333213Y170858D01*
X333189Y170900D01*
X333168Y170944D01*
X333151Y170990D01*
X333138Y171037D01*
X333129Y171085D01*
X333123Y171133D01*
X333121Y171182D01*
X333121Y172734D01*
X333123Y172783D01*
X333129Y172831D01*
X333138Y172879D01*
X333151Y172926D01*
X333168Y172972D01*
X333189Y173016D01*
X333213Y173058D01*
X333240Y173099D01*
X333270Y173137D01*
X333303Y173173D01*
X333339Y173206D01*
X333377Y173236D01*
X333418Y173263D01*
X333460Y173287D01*
X333504Y173308D01*
X333550Y173325D01*
X333597Y173338D01*
X333645Y173347D01*
X333693Y173353D01*
X333742Y173355D01*
X334363Y173355D01*
X336036Y173355D02*
X335415Y171182D01*
X336967Y171182D01*
X336502Y171803D02*
X336502Y170561D01*
X335498Y192794D02*
X334877Y192794D01*
X334828Y192796D01*
X334780Y192802D01*
X334732Y192811D01*
X334685Y192824D01*
X334639Y192841D01*
X334595Y192862D01*
X334553Y192886D01*
X334512Y192913D01*
X334474Y192943D01*
X334438Y192976D01*
X334405Y193012D01*
X334375Y193050D01*
X334348Y193091D01*
X334324Y193133D01*
X334303Y193177D01*
X334286Y193223D01*
X334273Y193270D01*
X334264Y193318D01*
X334258Y193366D01*
X334256Y193415D01*
X334256Y194967D01*
X334258Y195016D01*
X334264Y195064D01*
X334273Y195112D01*
X334286Y195159D01*
X334303Y195205D01*
X334324Y195249D01*
X334348Y195291D01*
X334375Y195332D01*
X334405Y195370D01*
X334438Y195406D01*
X334474Y195439D01*
X334512Y195469D01*
X334553Y195496D01*
X334595Y195520D01*
X334639Y195541D01*
X334685Y195558D01*
X334732Y195571D01*
X334780Y195580D01*
X334828Y195586D01*
X334877Y195588D01*
X335498Y195588D01*
X336550Y192794D02*
X337482Y192794D01*
X337531Y192796D01*
X337579Y192802D01*
X337627Y192811D01*
X337674Y192824D01*
X337720Y192841D01*
X337764Y192862D01*
X337806Y192886D01*
X337847Y192913D01*
X337885Y192943D01*
X337921Y192976D01*
X337954Y193012D01*
X337984Y193050D01*
X338011Y193091D01*
X338035Y193133D01*
X338056Y193177D01*
X338073Y193223D01*
X338086Y193270D01*
X338095Y193318D01*
X338101Y193366D01*
X338103Y193415D01*
X338102Y193415D02*
X338102Y193725D01*
X338103Y193725D02*
X338101Y193774D01*
X338095Y193822D01*
X338086Y193870D01*
X338073Y193917D01*
X338056Y193963D01*
X338035Y194007D01*
X338011Y194049D01*
X337984Y194090D01*
X337954Y194128D01*
X337921Y194164D01*
X337885Y194197D01*
X337847Y194227D01*
X337806Y194254D01*
X337764Y194278D01*
X337720Y194299D01*
X337674Y194316D01*
X337627Y194329D01*
X337579Y194338D01*
X337531Y194344D01*
X337482Y194346D01*
X336550Y194346D01*
X336550Y195588D01*
X338102Y195588D01*
D10*
X467360Y142240D02*
X467360Y111760D01*
X523240Y111760D01*
X523240Y142240D01*
X467360Y142240D01*
D12*
X538099Y115594D02*
X538099Y113957D01*
X538097Y113879D01*
X538092Y113801D01*
X538082Y113724D01*
X538069Y113647D01*
X538053Y113571D01*
X538033Y113496D01*
X538009Y113422D01*
X537982Y113349D01*
X537951Y113277D01*
X537917Y113207D01*
X537880Y113139D01*
X537839Y113072D01*
X537795Y113007D01*
X537749Y112945D01*
X537699Y112885D01*
X537647Y112827D01*
X537592Y112772D01*
X537534Y112720D01*
X537474Y112670D01*
X537412Y112624D01*
X537347Y112580D01*
X537281Y112539D01*
X537212Y112502D01*
X537142Y112468D01*
X537070Y112437D01*
X536997Y112410D01*
X536923Y112386D01*
X536848Y112366D01*
X536772Y112350D01*
X536695Y112337D01*
X536618Y112327D01*
X536540Y112322D01*
X536462Y112320D01*
X536462Y112321D02*
X532370Y112321D01*
X532290Y112323D01*
X532210Y112329D01*
X532130Y112339D01*
X532051Y112352D01*
X531972Y112370D01*
X531895Y112391D01*
X531819Y112417D01*
X531744Y112446D01*
X531670Y112478D01*
X531598Y112514D01*
X531528Y112554D01*
X531461Y112597D01*
X531395Y112643D01*
X531332Y112693D01*
X531271Y112745D01*
X531212Y112800D01*
X531157Y112859D01*
X531105Y112919D01*
X531055Y112983D01*
X531009Y113048D01*
X530966Y113116D01*
X530926Y113186D01*
X530890Y113258D01*
X530858Y113332D01*
X530829Y113406D01*
X530804Y113483D01*
X530782Y113560D01*
X530764Y113639D01*
X530751Y113718D01*
X530741Y113797D01*
X530735Y113878D01*
X530733Y113958D01*
X530733Y113957D02*
X530733Y115594D01*
X532779Y118440D02*
X536053Y118440D01*
X532779Y118440D02*
X532690Y118442D01*
X532601Y118448D01*
X532512Y118458D01*
X532424Y118471D01*
X532336Y118488D01*
X532249Y118510D01*
X532164Y118535D01*
X532079Y118563D01*
X531996Y118596D01*
X531914Y118632D01*
X531834Y118671D01*
X531756Y118714D01*
X531680Y118760D01*
X531605Y118810D01*
X531533Y118863D01*
X531464Y118919D01*
X531397Y118978D01*
X531332Y119039D01*
X531271Y119104D01*
X531212Y119171D01*
X531156Y119240D01*
X531103Y119312D01*
X531053Y119387D01*
X531007Y119463D01*
X530964Y119541D01*
X530925Y119621D01*
X530889Y119703D01*
X530856Y119786D01*
X530828Y119871D01*
X530803Y119956D01*
X530781Y120043D01*
X530764Y120131D01*
X530751Y120219D01*
X530741Y120308D01*
X530735Y120397D01*
X530733Y120486D01*
X530735Y120575D01*
X530741Y120664D01*
X530751Y120753D01*
X530764Y120841D01*
X530781Y120929D01*
X530803Y121016D01*
X530828Y121101D01*
X530856Y121186D01*
X530889Y121269D01*
X530925Y121351D01*
X530964Y121431D01*
X531007Y121509D01*
X531053Y121585D01*
X531103Y121660D01*
X531156Y121732D01*
X531212Y121801D01*
X531271Y121868D01*
X531332Y121933D01*
X531397Y121994D01*
X531464Y122053D01*
X531533Y122109D01*
X531605Y122162D01*
X531680Y122212D01*
X531756Y122258D01*
X531834Y122301D01*
X531914Y122340D01*
X531996Y122376D01*
X532079Y122409D01*
X532164Y122437D01*
X532249Y122462D01*
X532336Y122484D01*
X532424Y122501D01*
X532512Y122514D01*
X532601Y122524D01*
X532690Y122530D01*
X532779Y122532D01*
X536053Y122532D01*
X536142Y122530D01*
X536231Y122524D01*
X536320Y122514D01*
X536408Y122501D01*
X536496Y122484D01*
X536583Y122462D01*
X536668Y122437D01*
X536753Y122409D01*
X536836Y122376D01*
X536918Y122340D01*
X536998Y122301D01*
X537076Y122258D01*
X537152Y122212D01*
X537227Y122162D01*
X537299Y122109D01*
X537368Y122053D01*
X537435Y121994D01*
X537500Y121933D01*
X537561Y121868D01*
X537620Y121801D01*
X537676Y121732D01*
X537729Y121660D01*
X537779Y121585D01*
X537825Y121509D01*
X537868Y121431D01*
X537907Y121351D01*
X537943Y121269D01*
X537976Y121186D01*
X538004Y121101D01*
X538029Y121016D01*
X538051Y120929D01*
X538068Y120841D01*
X538081Y120753D01*
X538091Y120664D01*
X538097Y120575D01*
X538099Y120486D01*
X538097Y120397D01*
X538091Y120308D01*
X538081Y120219D01*
X538068Y120131D01*
X538051Y120043D01*
X538029Y119956D01*
X538004Y119871D01*
X537976Y119786D01*
X537943Y119703D01*
X537907Y119621D01*
X537868Y119541D01*
X537825Y119463D01*
X537779Y119387D01*
X537729Y119312D01*
X537676Y119240D01*
X537620Y119171D01*
X537561Y119104D01*
X537500Y119039D01*
X537435Y118978D01*
X537368Y118919D01*
X537299Y118863D01*
X537227Y118810D01*
X537152Y118760D01*
X537076Y118714D01*
X536998Y118671D01*
X536918Y118632D01*
X536836Y118596D01*
X536753Y118563D01*
X536668Y118535D01*
X536583Y118510D01*
X536496Y118488D01*
X536408Y118471D01*
X536320Y118458D01*
X536231Y118448D01*
X536142Y118442D01*
X536053Y118440D01*
X536053Y125755D02*
X532779Y125755D01*
X532690Y125757D01*
X532601Y125763D01*
X532512Y125773D01*
X532424Y125786D01*
X532336Y125803D01*
X532249Y125825D01*
X532164Y125850D01*
X532079Y125878D01*
X531996Y125911D01*
X531914Y125947D01*
X531834Y125986D01*
X531756Y126029D01*
X531680Y126075D01*
X531605Y126125D01*
X531533Y126178D01*
X531464Y126234D01*
X531397Y126293D01*
X531332Y126354D01*
X531271Y126419D01*
X531212Y126486D01*
X531156Y126555D01*
X531103Y126627D01*
X531053Y126702D01*
X531007Y126778D01*
X530964Y126856D01*
X530925Y126936D01*
X530889Y127018D01*
X530856Y127101D01*
X530828Y127186D01*
X530803Y127271D01*
X530781Y127358D01*
X530764Y127446D01*
X530751Y127534D01*
X530741Y127623D01*
X530735Y127712D01*
X530733Y127801D01*
X530735Y127890D01*
X530741Y127979D01*
X530751Y128068D01*
X530764Y128156D01*
X530781Y128244D01*
X530803Y128331D01*
X530828Y128416D01*
X530856Y128501D01*
X530889Y128584D01*
X530925Y128666D01*
X530964Y128746D01*
X531007Y128824D01*
X531053Y128900D01*
X531103Y128975D01*
X531156Y129047D01*
X531212Y129116D01*
X531271Y129183D01*
X531332Y129248D01*
X531397Y129309D01*
X531464Y129368D01*
X531533Y129424D01*
X531605Y129477D01*
X531680Y129527D01*
X531756Y129573D01*
X531834Y129616D01*
X531914Y129655D01*
X531996Y129691D01*
X532079Y129724D01*
X532164Y129752D01*
X532249Y129777D01*
X532336Y129799D01*
X532424Y129816D01*
X532512Y129829D01*
X532601Y129839D01*
X532690Y129845D01*
X532779Y129847D01*
X536053Y129847D01*
X536142Y129845D01*
X536231Y129839D01*
X536320Y129829D01*
X536408Y129816D01*
X536496Y129799D01*
X536583Y129777D01*
X536668Y129752D01*
X536753Y129724D01*
X536836Y129691D01*
X536918Y129655D01*
X536998Y129616D01*
X537076Y129573D01*
X537152Y129527D01*
X537227Y129477D01*
X537299Y129424D01*
X537368Y129368D01*
X537435Y129309D01*
X537500Y129248D01*
X537561Y129183D01*
X537620Y129116D01*
X537676Y129047D01*
X537729Y128975D01*
X537779Y128900D01*
X537825Y128824D01*
X537868Y128746D01*
X537907Y128666D01*
X537943Y128584D01*
X537976Y128501D01*
X538004Y128416D01*
X538029Y128331D01*
X538051Y128244D01*
X538068Y128156D01*
X538081Y128068D01*
X538091Y127979D01*
X538097Y127890D01*
X538099Y127801D01*
X538097Y127712D01*
X538091Y127623D01*
X538081Y127534D01*
X538068Y127446D01*
X538051Y127358D01*
X538029Y127271D01*
X538004Y127186D01*
X537976Y127101D01*
X537943Y127018D01*
X537907Y126936D01*
X537868Y126856D01*
X537825Y126778D01*
X537779Y126702D01*
X537729Y126627D01*
X537676Y126555D01*
X537620Y126486D01*
X537561Y126419D01*
X537500Y126354D01*
X537435Y126293D01*
X537368Y126234D01*
X537299Y126178D01*
X537227Y126125D01*
X537152Y126075D01*
X537076Y126029D01*
X536998Y125986D01*
X536918Y125947D01*
X536836Y125911D01*
X536753Y125878D01*
X536668Y125850D01*
X536583Y125825D01*
X536496Y125803D01*
X536408Y125786D01*
X536320Y125773D01*
X536231Y125763D01*
X536142Y125757D01*
X536053Y125755D01*
X538099Y133330D02*
X530733Y133330D01*
X538099Y133330D02*
X538099Y136603D01*
X535234Y139488D02*
X535234Y144399D01*
D10*
X170561Y226060D02*
X140081Y226060D01*
X170561Y226060D02*
X170561Y281940D01*
X140081Y281940D01*
X140081Y226060D01*
D13*
X140843Y292735D02*
X142748Y292735D01*
X142748Y286385D01*
X138938Y286385D01*
X138838Y286387D01*
X138739Y286393D01*
X138639Y286403D01*
X138541Y286416D01*
X138442Y286434D01*
X138345Y286455D01*
X138249Y286480D01*
X138153Y286509D01*
X138059Y286542D01*
X137966Y286578D01*
X137875Y286618D01*
X137785Y286662D01*
X137697Y286709D01*
X137611Y286759D01*
X137527Y286813D01*
X137445Y286870D01*
X137366Y286930D01*
X137288Y286994D01*
X137214Y287060D01*
X137142Y287129D01*
X137073Y287201D01*
X137007Y287275D01*
X136943Y287353D01*
X136883Y287432D01*
X136826Y287514D01*
X136772Y287598D01*
X136722Y287684D01*
X136675Y287772D01*
X136631Y287862D01*
X136591Y287953D01*
X136555Y288046D01*
X136522Y288140D01*
X136493Y288236D01*
X136468Y288332D01*
X136447Y288429D01*
X136429Y288528D01*
X136416Y288626D01*
X136406Y288726D01*
X136400Y288825D01*
X136398Y288925D01*
X136398Y295275D01*
X136400Y295375D01*
X136406Y295474D01*
X136416Y295574D01*
X136429Y295672D01*
X136447Y295771D01*
X136468Y295868D01*
X136493Y295964D01*
X136522Y296060D01*
X136555Y296154D01*
X136591Y296247D01*
X136631Y296338D01*
X136675Y296428D01*
X136722Y296516D01*
X136772Y296602D01*
X136826Y296686D01*
X136883Y296768D01*
X136943Y296847D01*
X137007Y296925D01*
X137073Y296999D01*
X137142Y297071D01*
X137214Y297140D01*
X137288Y297206D01*
X137366Y297270D01*
X137445Y297330D01*
X137527Y297387D01*
X137611Y297441D01*
X137697Y297491D01*
X137785Y297538D01*
X137875Y297582D01*
X137966Y297622D01*
X138059Y297658D01*
X138153Y297691D01*
X138249Y297720D01*
X138345Y297745D01*
X138442Y297766D01*
X138541Y297784D01*
X138639Y297797D01*
X138739Y297807D01*
X138838Y297813D01*
X138938Y297815D01*
X142748Y297815D01*
X148590Y297815D02*
X148590Y286385D01*
X154940Y286385D02*
X148590Y297815D01*
X154940Y297815D02*
X154940Y286385D01*
X160782Y286385D02*
X160782Y297815D01*
X163957Y297815D01*
X164068Y297813D01*
X164178Y297807D01*
X164289Y297798D01*
X164399Y297784D01*
X164508Y297767D01*
X164617Y297746D01*
X164725Y297721D01*
X164832Y297692D01*
X164938Y297660D01*
X165043Y297624D01*
X165146Y297584D01*
X165248Y297541D01*
X165349Y297494D01*
X165448Y297443D01*
X165545Y297390D01*
X165639Y297333D01*
X165732Y297272D01*
X165823Y297209D01*
X165912Y297142D01*
X165998Y297072D01*
X166081Y296999D01*
X166163Y296924D01*
X166241Y296846D01*
X166316Y296764D01*
X166389Y296681D01*
X166459Y296595D01*
X166526Y296506D01*
X166589Y296415D01*
X166650Y296322D01*
X166707Y296228D01*
X166760Y296131D01*
X166811Y296032D01*
X166858Y295931D01*
X166901Y295829D01*
X166941Y295726D01*
X166977Y295621D01*
X167009Y295515D01*
X167038Y295408D01*
X167063Y295300D01*
X167084Y295191D01*
X167101Y295082D01*
X167115Y294972D01*
X167124Y294861D01*
X167130Y294751D01*
X167132Y294640D01*
X167132Y289560D01*
X167130Y289449D01*
X167124Y289339D01*
X167115Y289228D01*
X167101Y289118D01*
X167084Y289009D01*
X167063Y288900D01*
X167038Y288792D01*
X167009Y288685D01*
X166977Y288579D01*
X166941Y288474D01*
X166901Y288371D01*
X166858Y288269D01*
X166811Y288168D01*
X166760Y288069D01*
X166707Y287972D01*
X166650Y287878D01*
X166589Y287785D01*
X166526Y287694D01*
X166459Y287605D01*
X166389Y287519D01*
X166316Y287436D01*
X166241Y287354D01*
X166163Y287276D01*
X166081Y287201D01*
X165998Y287128D01*
X165912Y287058D01*
X165823Y286991D01*
X165732Y286928D01*
X165639Y286867D01*
X165544Y286810D01*
X165448Y286757D01*
X165349Y286706D01*
X165248Y286659D01*
X165146Y286616D01*
X165043Y286576D01*
X164938Y286540D01*
X164832Y286508D01*
X164725Y286479D01*
X164617Y286454D01*
X164508Y286433D01*
X164399Y286416D01*
X164289Y286402D01*
X164178Y286393D01*
X164068Y286387D01*
X163957Y286385D01*
X160782Y286385D01*
D14*
X221145Y285736D02*
X221145Y297420D01*
X219846Y285736D02*
X222443Y285736D01*
X222443Y297420D02*
X219846Y297420D01*
X227043Y294174D02*
X227043Y288982D01*
X227042Y294174D02*
X227044Y294287D01*
X227050Y294400D01*
X227060Y294513D01*
X227074Y294626D01*
X227091Y294738D01*
X227113Y294849D01*
X227138Y294959D01*
X227168Y295069D01*
X227201Y295177D01*
X227238Y295284D01*
X227278Y295390D01*
X227323Y295494D01*
X227371Y295597D01*
X227422Y295698D01*
X227477Y295797D01*
X227535Y295894D01*
X227597Y295989D01*
X227662Y296082D01*
X227730Y296172D01*
X227801Y296260D01*
X227876Y296346D01*
X227953Y296429D01*
X228033Y296509D01*
X228116Y296586D01*
X228202Y296661D01*
X228290Y296732D01*
X228380Y296800D01*
X228473Y296865D01*
X228568Y296927D01*
X228665Y296985D01*
X228764Y297040D01*
X228865Y297091D01*
X228968Y297139D01*
X229072Y297184D01*
X229178Y297224D01*
X229285Y297261D01*
X229393Y297294D01*
X229503Y297324D01*
X229613Y297349D01*
X229724Y297371D01*
X229836Y297388D01*
X229949Y297402D01*
X230062Y297412D01*
X230175Y297418D01*
X230288Y297420D01*
X230401Y297418D01*
X230514Y297412D01*
X230627Y297402D01*
X230740Y297388D01*
X230852Y297371D01*
X230963Y297349D01*
X231073Y297324D01*
X231183Y297294D01*
X231291Y297261D01*
X231398Y297224D01*
X231504Y297184D01*
X231608Y297139D01*
X231711Y297091D01*
X231812Y297040D01*
X231911Y296985D01*
X232008Y296927D01*
X232103Y296865D01*
X232196Y296800D01*
X232286Y296732D01*
X232374Y296661D01*
X232460Y296586D01*
X232543Y296509D01*
X232623Y296429D01*
X232700Y296346D01*
X232775Y296260D01*
X232846Y296172D01*
X232914Y296082D01*
X232979Y295989D01*
X233041Y295894D01*
X233099Y295797D01*
X233154Y295698D01*
X233205Y295597D01*
X233253Y295494D01*
X233298Y295390D01*
X233338Y295284D01*
X233375Y295177D01*
X233408Y295069D01*
X233438Y294959D01*
X233463Y294849D01*
X233485Y294738D01*
X233502Y294626D01*
X233516Y294513D01*
X233526Y294400D01*
X233532Y294287D01*
X233534Y294174D01*
X233534Y288982D01*
X233532Y288869D01*
X233526Y288756D01*
X233516Y288643D01*
X233502Y288530D01*
X233485Y288418D01*
X233463Y288307D01*
X233438Y288197D01*
X233408Y288087D01*
X233375Y287979D01*
X233338Y287872D01*
X233298Y287766D01*
X233253Y287662D01*
X233205Y287559D01*
X233154Y287458D01*
X233099Y287359D01*
X233041Y287262D01*
X232979Y287167D01*
X232914Y287074D01*
X232846Y286984D01*
X232775Y286896D01*
X232700Y286810D01*
X232623Y286727D01*
X232543Y286647D01*
X232460Y286570D01*
X232374Y286495D01*
X232286Y286424D01*
X232196Y286356D01*
X232103Y286291D01*
X232008Y286229D01*
X231911Y286171D01*
X231812Y286116D01*
X231711Y286065D01*
X231608Y286017D01*
X231504Y285972D01*
X231398Y285932D01*
X231291Y285895D01*
X231183Y285862D01*
X231073Y285832D01*
X230963Y285807D01*
X230852Y285785D01*
X230740Y285768D01*
X230627Y285754D01*
X230514Y285744D01*
X230401Y285738D01*
X230288Y285736D01*
X230175Y285738D01*
X230062Y285744D01*
X229949Y285754D01*
X229836Y285768D01*
X229724Y285785D01*
X229613Y285807D01*
X229503Y285832D01*
X229393Y285862D01*
X229285Y285895D01*
X229178Y285932D01*
X229072Y285972D01*
X228968Y286017D01*
X228865Y286065D01*
X228764Y286116D01*
X228665Y286171D01*
X228568Y286229D01*
X228473Y286291D01*
X228380Y286356D01*
X228290Y286424D01*
X228202Y286495D01*
X228116Y286570D01*
X228033Y286647D01*
X227953Y286727D01*
X227876Y286810D01*
X227801Y286896D01*
X227730Y286984D01*
X227662Y287074D01*
X227597Y287167D01*
X227535Y287262D01*
X227477Y287359D01*
X227422Y287458D01*
X227371Y287559D01*
X227323Y287662D01*
X227278Y287766D01*
X227238Y287872D01*
X227201Y287979D01*
X227168Y288087D01*
X227138Y288197D01*
X227113Y288307D01*
X227091Y288418D01*
X227074Y288530D01*
X227060Y288643D01*
X227050Y288756D01*
X227044Y288869D01*
X227042Y288982D01*
X238473Y291578D02*
X238476Y291808D01*
X238484Y292038D01*
X238498Y292267D01*
X238517Y292496D01*
X238542Y292725D01*
X238572Y292952D01*
X238607Y293180D01*
X238648Y293406D01*
X238694Y293631D01*
X238746Y293855D01*
X238803Y294077D01*
X238865Y294299D01*
X238933Y294518D01*
X239006Y294736D01*
X239084Y294953D01*
X239167Y295167D01*
X239255Y295379D01*
X239348Y295589D01*
X239447Y295797D01*
X239446Y295797D02*
X239479Y295887D01*
X239515Y295976D01*
X239555Y296064D01*
X239599Y296149D01*
X239646Y296233D01*
X239696Y296315D01*
X239750Y296395D01*
X239806Y296472D01*
X239866Y296548D01*
X239929Y296621D01*
X239994Y296691D01*
X240063Y296759D01*
X240134Y296823D01*
X240207Y296885D01*
X240283Y296944D01*
X240361Y297000D01*
X240442Y297053D01*
X240524Y297102D01*
X240608Y297148D01*
X240695Y297191D01*
X240782Y297230D01*
X240872Y297266D01*
X240962Y297298D01*
X241054Y297326D01*
X241147Y297351D01*
X241241Y297372D01*
X241335Y297389D01*
X241430Y297403D01*
X241526Y297412D01*
X241622Y297418D01*
X241718Y297420D01*
X241814Y297418D01*
X241910Y297412D01*
X242006Y297403D01*
X242101Y297389D01*
X242195Y297372D01*
X242289Y297351D01*
X242382Y297326D01*
X242474Y297298D01*
X242564Y297266D01*
X242654Y297230D01*
X242741Y297191D01*
X242828Y297148D01*
X242912Y297102D01*
X242994Y297053D01*
X243075Y297000D01*
X243153Y296944D01*
X243229Y296885D01*
X243302Y296823D01*
X243373Y296759D01*
X243442Y296691D01*
X243507Y296621D01*
X243570Y296548D01*
X243630Y296472D01*
X243686Y296395D01*
X243740Y296315D01*
X243790Y296233D01*
X243837Y296149D01*
X243881Y296064D01*
X243921Y295976D01*
X243957Y295887D01*
X243990Y295797D01*
X243991Y295797D02*
X244090Y295590D01*
X244183Y295380D01*
X244271Y295167D01*
X244354Y294953D01*
X244432Y294737D01*
X244505Y294519D01*
X244573Y294299D01*
X244635Y294078D01*
X244692Y293855D01*
X244744Y293631D01*
X244790Y293406D01*
X244831Y293180D01*
X244866Y292953D01*
X244896Y292725D01*
X244921Y292496D01*
X244940Y292267D01*
X244954Y292038D01*
X244962Y291808D01*
X244965Y291578D01*
X238473Y291578D02*
X238476Y291348D01*
X238484Y291118D01*
X238498Y290889D01*
X238517Y290660D01*
X238542Y290431D01*
X238572Y290203D01*
X238607Y289976D01*
X238648Y289750D01*
X238694Y289525D01*
X238746Y289301D01*
X238803Y289078D01*
X238865Y288857D01*
X238933Y288637D01*
X239006Y288419D01*
X239084Y288203D01*
X239167Y287989D01*
X239255Y287777D01*
X239348Y287566D01*
X239447Y287359D01*
X239446Y287359D02*
X239479Y287269D01*
X239515Y287180D01*
X239556Y287092D01*
X239599Y287007D01*
X239646Y286923D01*
X239696Y286841D01*
X239750Y286761D01*
X239806Y286684D01*
X239866Y286608D01*
X239929Y286535D01*
X239994Y286465D01*
X240063Y286397D01*
X240134Y286333D01*
X240207Y286271D01*
X240283Y286212D01*
X240361Y286156D01*
X240442Y286103D01*
X240524Y286054D01*
X240608Y286008D01*
X240695Y285965D01*
X240782Y285926D01*
X240872Y285890D01*
X240962Y285858D01*
X241054Y285830D01*
X241147Y285805D01*
X241241Y285784D01*
X241335Y285767D01*
X241430Y285753D01*
X241526Y285744D01*
X241622Y285738D01*
X241718Y285736D01*
X243990Y287359D02*
X244089Y287566D01*
X244182Y287777D01*
X244270Y287989D01*
X244353Y288203D01*
X244431Y288419D01*
X244504Y288637D01*
X244572Y288857D01*
X244634Y289078D01*
X244691Y289301D01*
X244743Y289525D01*
X244789Y289750D01*
X244830Y289976D01*
X244865Y290203D01*
X244895Y290431D01*
X244920Y290660D01*
X244939Y290889D01*
X244953Y291118D01*
X244961Y291348D01*
X244964Y291578D01*
X243990Y287359D02*
X243957Y287269D01*
X243921Y287180D01*
X243881Y287092D01*
X243837Y287007D01*
X243790Y286923D01*
X243740Y286841D01*
X243686Y286761D01*
X243630Y286684D01*
X243570Y286608D01*
X243507Y286535D01*
X243442Y286465D01*
X243373Y286397D01*
X243302Y286333D01*
X243229Y286271D01*
X243153Y286212D01*
X243075Y286156D01*
X242994Y286103D01*
X242912Y286054D01*
X242828Y286008D01*
X242741Y285965D01*
X242654Y285926D01*
X242564Y285890D01*
X242474Y285858D01*
X242382Y285830D01*
X242289Y285805D01*
X242195Y285784D01*
X242101Y285767D01*
X242006Y285753D01*
X241910Y285744D01*
X241814Y285738D01*
X241718Y285736D01*
X239122Y288332D02*
X244315Y294824D01*
D15*
X255600Y13800D02*
X74600Y13800D01*
X74600Y213550D02*
X74600Y214800D01*
X74600Y77050D02*
X74600Y13800D01*
X74600Y214800D02*
X255600Y214800D01*
X255600Y213550D01*
X255600Y77050D02*
X255600Y13800D01*
D16*
X265850Y85300D03*
D13*
X391900Y127000D02*
X391900Y25400D01*
X433850Y25400D01*
X433850Y127000D01*
X391900Y127000D01*
D17*
X420100Y18200D02*
X420102Y18263D01*
X420108Y18325D01*
X420118Y18387D01*
X420131Y18449D01*
X420149Y18509D01*
X420170Y18568D01*
X420195Y18626D01*
X420224Y18682D01*
X420256Y18736D01*
X420291Y18788D01*
X420329Y18837D01*
X420371Y18885D01*
X420415Y18929D01*
X420463Y18971D01*
X420512Y19009D01*
X420564Y19044D01*
X420618Y19076D01*
X420674Y19105D01*
X420732Y19130D01*
X420791Y19151D01*
X420851Y19169D01*
X420913Y19182D01*
X420975Y19192D01*
X421037Y19198D01*
X421100Y19200D01*
X421163Y19198D01*
X421225Y19192D01*
X421287Y19182D01*
X421349Y19169D01*
X421409Y19151D01*
X421468Y19130D01*
X421526Y19105D01*
X421582Y19076D01*
X421636Y19044D01*
X421688Y19009D01*
X421737Y18971D01*
X421785Y18929D01*
X421829Y18885D01*
X421871Y18837D01*
X421909Y18788D01*
X421944Y18736D01*
X421976Y18682D01*
X422005Y18626D01*
X422030Y18568D01*
X422051Y18509D01*
X422069Y18449D01*
X422082Y18387D01*
X422092Y18325D01*
X422098Y18263D01*
X422100Y18200D01*
X422098Y18137D01*
X422092Y18075D01*
X422082Y18013D01*
X422069Y17951D01*
X422051Y17891D01*
X422030Y17832D01*
X422005Y17774D01*
X421976Y17718D01*
X421944Y17664D01*
X421909Y17612D01*
X421871Y17563D01*
X421829Y17515D01*
X421785Y17471D01*
X421737Y17429D01*
X421688Y17391D01*
X421636Y17356D01*
X421582Y17324D01*
X421526Y17295D01*
X421468Y17270D01*
X421409Y17249D01*
X421349Y17231D01*
X421287Y17218D01*
X421225Y17208D01*
X421163Y17202D01*
X421100Y17200D01*
X421037Y17202D01*
X420975Y17208D01*
X420913Y17218D01*
X420851Y17231D01*
X420791Y17249D01*
X420732Y17270D01*
X420674Y17295D01*
X420618Y17324D01*
X420564Y17356D01*
X420512Y17391D01*
X420463Y17429D01*
X420415Y17471D01*
X420371Y17515D01*
X420329Y17563D01*
X420291Y17612D01*
X420256Y17664D01*
X420224Y17718D01*
X420195Y17774D01*
X420170Y17832D01*
X420149Y17891D01*
X420131Y17951D01*
X420118Y18013D01*
X420108Y18075D01*
X420102Y18137D01*
X420100Y18200D01*
D13*
X391900Y139700D02*
X391900Y241300D01*
X391900Y139700D02*
X433850Y139700D01*
X433850Y241300D01*
X391900Y241300D01*
D17*
X420100Y132500D02*
X420102Y132563D01*
X420108Y132625D01*
X420118Y132687D01*
X420131Y132749D01*
X420149Y132809D01*
X420170Y132868D01*
X420195Y132926D01*
X420224Y132982D01*
X420256Y133036D01*
X420291Y133088D01*
X420329Y133137D01*
X420371Y133185D01*
X420415Y133229D01*
X420463Y133271D01*
X420512Y133309D01*
X420564Y133344D01*
X420618Y133376D01*
X420674Y133405D01*
X420732Y133430D01*
X420791Y133451D01*
X420851Y133469D01*
X420913Y133482D01*
X420975Y133492D01*
X421037Y133498D01*
X421100Y133500D01*
X421163Y133498D01*
X421225Y133492D01*
X421287Y133482D01*
X421349Y133469D01*
X421409Y133451D01*
X421468Y133430D01*
X421526Y133405D01*
X421582Y133376D01*
X421636Y133344D01*
X421688Y133309D01*
X421737Y133271D01*
X421785Y133229D01*
X421829Y133185D01*
X421871Y133137D01*
X421909Y133088D01*
X421944Y133036D01*
X421976Y132982D01*
X422005Y132926D01*
X422030Y132868D01*
X422051Y132809D01*
X422069Y132749D01*
X422082Y132687D01*
X422092Y132625D01*
X422098Y132563D01*
X422100Y132500D01*
X422098Y132437D01*
X422092Y132375D01*
X422082Y132313D01*
X422069Y132251D01*
X422051Y132191D01*
X422030Y132132D01*
X422005Y132074D01*
X421976Y132018D01*
X421944Y131964D01*
X421909Y131912D01*
X421871Y131863D01*
X421829Y131815D01*
X421785Y131771D01*
X421737Y131729D01*
X421688Y131691D01*
X421636Y131656D01*
X421582Y131624D01*
X421526Y131595D01*
X421468Y131570D01*
X421409Y131549D01*
X421349Y131531D01*
X421287Y131518D01*
X421225Y131508D01*
X421163Y131502D01*
X421100Y131500D01*
X421037Y131502D01*
X420975Y131508D01*
X420913Y131518D01*
X420851Y131531D01*
X420791Y131549D01*
X420732Y131570D01*
X420674Y131595D01*
X420618Y131624D01*
X420564Y131656D01*
X420512Y131691D01*
X420463Y131729D01*
X420415Y131771D01*
X420371Y131815D01*
X420329Y131863D01*
X420291Y131912D01*
X420256Y131964D01*
X420224Y132018D01*
X420195Y132074D01*
X420170Y132132D01*
X420149Y132191D01*
X420131Y132251D01*
X420118Y132313D01*
X420108Y132375D01*
X420102Y132437D01*
X420100Y132500D01*
D11*
X332867Y95123D02*
X332867Y92329D01*
X332867Y95123D02*
X333643Y95123D01*
X333698Y95121D01*
X333753Y95115D01*
X333808Y95105D01*
X333862Y95092D01*
X333914Y95074D01*
X333965Y95053D01*
X334015Y95028D01*
X334063Y95000D01*
X334108Y94968D01*
X334151Y94933D01*
X334192Y94896D01*
X334229Y94855D01*
X334264Y94812D01*
X334296Y94767D01*
X334324Y94719D01*
X334349Y94669D01*
X334370Y94618D01*
X334388Y94566D01*
X334401Y94512D01*
X334411Y94457D01*
X334417Y94402D01*
X334419Y94347D01*
X334417Y94292D01*
X334411Y94237D01*
X334401Y94182D01*
X334388Y94128D01*
X334370Y94076D01*
X334349Y94025D01*
X334324Y93975D01*
X334296Y93927D01*
X334264Y93882D01*
X334229Y93839D01*
X334192Y93798D01*
X334151Y93761D01*
X334108Y93726D01*
X334063Y93694D01*
X334015Y93666D01*
X333965Y93641D01*
X333914Y93620D01*
X333862Y93602D01*
X333808Y93589D01*
X333753Y93579D01*
X333698Y93573D01*
X333643Y93571D01*
X332867Y93571D01*
X333798Y93571D02*
X334419Y92329D01*
X335592Y94502D02*
X336368Y95123D01*
X336368Y92329D01*
X335592Y92329D02*
X337144Y92329D01*
X332613Y143129D02*
X332613Y145923D01*
X333389Y145923D01*
X333444Y145921D01*
X333499Y145915D01*
X333554Y145905D01*
X333608Y145892D01*
X333660Y145874D01*
X333711Y145853D01*
X333761Y145828D01*
X333809Y145800D01*
X333854Y145768D01*
X333897Y145733D01*
X333938Y145696D01*
X333975Y145655D01*
X334010Y145612D01*
X334042Y145567D01*
X334070Y145519D01*
X334095Y145469D01*
X334116Y145418D01*
X334134Y145366D01*
X334147Y145312D01*
X334157Y145257D01*
X334163Y145202D01*
X334165Y145147D01*
X334163Y145092D01*
X334157Y145037D01*
X334147Y144982D01*
X334134Y144928D01*
X334116Y144876D01*
X334095Y144825D01*
X334070Y144775D01*
X334042Y144727D01*
X334010Y144682D01*
X333975Y144639D01*
X333938Y144598D01*
X333897Y144561D01*
X333854Y144526D01*
X333809Y144494D01*
X333761Y144466D01*
X333711Y144441D01*
X333660Y144420D01*
X333608Y144402D01*
X333554Y144389D01*
X333499Y144379D01*
X333444Y144373D01*
X333389Y144371D01*
X332613Y144371D01*
X333544Y144371D02*
X334165Y143129D01*
X336891Y145225D02*
X336889Y145275D01*
X336884Y145324D01*
X336875Y145374D01*
X336863Y145422D01*
X336847Y145469D01*
X336828Y145515D01*
X336805Y145560D01*
X336780Y145603D01*
X336752Y145644D01*
X336720Y145683D01*
X336686Y145719D01*
X336650Y145753D01*
X336611Y145785D01*
X336570Y145813D01*
X336527Y145838D01*
X336482Y145861D01*
X336436Y145880D01*
X336389Y145896D01*
X336341Y145908D01*
X336291Y145917D01*
X336242Y145922D01*
X336192Y145924D01*
X336192Y145923D02*
X336136Y145921D01*
X336079Y145916D01*
X336024Y145907D01*
X335969Y145895D01*
X335915Y145879D01*
X335862Y145860D01*
X335810Y145838D01*
X335760Y145812D01*
X335711Y145783D01*
X335664Y145751D01*
X335620Y145717D01*
X335578Y145680D01*
X335538Y145640D01*
X335500Y145597D01*
X335466Y145553D01*
X335434Y145506D01*
X335406Y145458D01*
X335380Y145407D01*
X335358Y145355D01*
X335339Y145302D01*
X336657Y144682D02*
X336693Y144718D01*
X336726Y144756D01*
X336756Y144797D01*
X336783Y144840D01*
X336808Y144884D01*
X336829Y144930D01*
X336848Y144977D01*
X336863Y145025D01*
X336875Y145074D01*
X336883Y145124D01*
X336888Y145174D01*
X336890Y145225D01*
X336658Y144681D02*
X335338Y143129D01*
X336890Y143129D01*
D15*
X308923Y246898D02*
X301423Y246898D01*
X313923Y234398D02*
X313923Y228898D01*
X308923Y216398D02*
X301423Y216398D01*
D16*
X280673Y241148D03*
D12*
X296804Y252845D02*
X296804Y259517D01*
X296804Y252845D02*
X296806Y252746D01*
X296812Y252646D01*
X296821Y252547D01*
X296835Y252449D01*
X296852Y252351D01*
X296873Y252253D01*
X296898Y252157D01*
X296927Y252062D01*
X296959Y251967D01*
X296995Y251875D01*
X297034Y251783D01*
X297077Y251693D01*
X297123Y251605D01*
X297173Y251519D01*
X297226Y251435D01*
X297282Y251353D01*
X297342Y251273D01*
X297404Y251196D01*
X297470Y251121D01*
X297538Y251048D01*
X297609Y250979D01*
X297683Y250912D01*
X297759Y250848D01*
X297838Y250787D01*
X297919Y250729D01*
X298002Y250674D01*
X298087Y250623D01*
X298174Y250575D01*
X298263Y250530D01*
X298354Y250489D01*
X298446Y250451D01*
X298539Y250417D01*
X298634Y250387D01*
X298730Y250360D01*
X298827Y250337D01*
X298924Y250318D01*
X299023Y250303D01*
X299122Y250291D01*
X299221Y250283D01*
X299320Y250279D01*
X299420Y250279D01*
X299519Y250283D01*
X299618Y250291D01*
X299717Y250303D01*
X299816Y250318D01*
X299913Y250337D01*
X300010Y250360D01*
X300106Y250387D01*
X300201Y250417D01*
X300294Y250451D01*
X300386Y250489D01*
X300477Y250530D01*
X300566Y250575D01*
X300653Y250623D01*
X300738Y250674D01*
X300821Y250729D01*
X300902Y250787D01*
X300981Y250848D01*
X301057Y250912D01*
X301131Y250979D01*
X301202Y251048D01*
X301270Y251121D01*
X301336Y251196D01*
X301398Y251273D01*
X301458Y251353D01*
X301514Y251435D01*
X301567Y251519D01*
X301617Y251605D01*
X301663Y251693D01*
X301706Y251783D01*
X301745Y251875D01*
X301781Y251967D01*
X301813Y252062D01*
X301842Y252157D01*
X301867Y252253D01*
X301888Y252351D01*
X301905Y252449D01*
X301919Y252547D01*
X301928Y252646D01*
X301934Y252746D01*
X301936Y252845D01*
X301936Y259517D01*
X306104Y257464D02*
X308670Y259517D01*
X308670Y250279D01*
X306104Y250279D02*
X311236Y250279D01*
D10*
X116840Y226060D02*
X86360Y226060D01*
X116840Y226060D02*
X116840Y281940D01*
X86360Y281940D01*
X86360Y226060D01*
D13*
X91821Y285877D02*
X88011Y297307D01*
X95631Y297307D02*
X91821Y285877D01*
X100965Y285877D02*
X100965Y297307D01*
X99695Y285877D02*
X102235Y285877D01*
X102235Y297307D02*
X99695Y297307D01*
X107315Y297307D02*
X107315Y285877D01*
X113665Y285877D02*
X107315Y297307D01*
X113665Y297307D02*
X113665Y285877D01*
D10*
X467360Y193040D02*
X467360Y162560D01*
X523240Y162560D01*
X523240Y193040D01*
X467360Y193040D01*
D12*
X530225Y159325D02*
X537591Y160962D01*
X532680Y162599D01*
X537591Y164236D01*
X530225Y165873D01*
X530225Y170890D02*
X537591Y168434D01*
X537591Y173345D02*
X530225Y170890D01*
X535750Y172731D02*
X535750Y169048D01*
X537591Y176454D02*
X530225Y176454D01*
X530225Y178500D01*
X530227Y178589D01*
X530233Y178678D01*
X530243Y178767D01*
X530256Y178855D01*
X530273Y178943D01*
X530295Y179030D01*
X530320Y179115D01*
X530348Y179200D01*
X530381Y179283D01*
X530417Y179365D01*
X530456Y179445D01*
X530499Y179523D01*
X530545Y179599D01*
X530595Y179674D01*
X530648Y179746D01*
X530704Y179815D01*
X530763Y179882D01*
X530824Y179947D01*
X530889Y180008D01*
X530956Y180067D01*
X531025Y180123D01*
X531097Y180176D01*
X531172Y180226D01*
X531248Y180272D01*
X531326Y180315D01*
X531406Y180354D01*
X531488Y180390D01*
X531571Y180423D01*
X531656Y180451D01*
X531741Y180476D01*
X531828Y180498D01*
X531916Y180515D01*
X532004Y180528D01*
X532093Y180538D01*
X532182Y180544D01*
X532271Y180546D01*
X532360Y180544D01*
X532449Y180538D01*
X532538Y180528D01*
X532626Y180515D01*
X532714Y180498D01*
X532801Y180476D01*
X532886Y180451D01*
X532971Y180423D01*
X533054Y180390D01*
X533136Y180354D01*
X533216Y180315D01*
X533294Y180272D01*
X533370Y180226D01*
X533445Y180176D01*
X533517Y180123D01*
X533586Y180067D01*
X533653Y180008D01*
X533718Y179947D01*
X533779Y179882D01*
X533838Y179815D01*
X533894Y179746D01*
X533947Y179674D01*
X533997Y179599D01*
X534043Y179523D01*
X534086Y179445D01*
X534125Y179365D01*
X534161Y179283D01*
X534194Y179200D01*
X534222Y179115D01*
X534247Y179030D01*
X534269Y178943D01*
X534286Y178855D01*
X534299Y178767D01*
X534309Y178678D01*
X534315Y178589D01*
X534317Y178500D01*
X534317Y176454D01*
X534317Y178909D02*
X537591Y180546D01*
X537591Y184040D02*
X530225Y184040D01*
X534317Y186495D01*
X530225Y188951D01*
X537591Y188951D01*
X534726Y192574D02*
X534726Y197485D01*
D10*
X39116Y148590D02*
X32766Y154940D01*
X39116Y148590D02*
X39116Y135890D01*
X32766Y129540D01*
X20066Y129540D01*
X13716Y135890D01*
X13716Y148590D01*
X20066Y154940D01*
X39116Y186690D02*
X39116Y199390D01*
X39116Y186690D02*
X32766Y180340D01*
X20066Y180340D01*
X13716Y186690D01*
X32766Y180340D02*
X39116Y173990D01*
X39116Y161290D01*
X32766Y154940D01*
X20066Y154940D01*
X13716Y161290D01*
X13716Y173990D01*
X20066Y180340D01*
X20066Y205740D02*
X32766Y205740D01*
X39116Y199390D01*
X20066Y205740D02*
X13716Y199390D01*
X13716Y186690D01*
X39116Y123190D02*
X39116Y110490D01*
X32766Y104140D01*
X20066Y104140D01*
X13716Y110490D01*
X32766Y129540D02*
X39116Y123190D01*
X20066Y129540D02*
X13716Y123190D01*
X13716Y110490D01*
M02*
