G04 EAGLE Gerber RS-274X export*
G75*
%MOMM*%
%FSLAX34Y34*%
%LPD*%
%INSolderpaste Top*%
%IPPOS*%
%AMOC8*
5,1,8,0,0,1.08239X$1,22.5*%
G01*
%ADD10R,5.080000X2.540000*%
%ADD11R,1.600000X1.800000*%
%ADD12R,2.540000X5.080000*%
%ADD13R,1.500000X0.900000*%
%ADD14R,4.000000X4.000000*%
%ADD15R,1.600000X1.803000*%
%ADD16C,0.102000*%


D10*
X495300Y228600D03*
D11*
X290800Y63500D03*
X318800Y63500D03*
X290800Y38100D03*
X318800Y38100D03*
X318800Y114300D03*
X290800Y114300D03*
X318800Y165100D03*
X290800Y165100D03*
X318800Y190500D03*
X290800Y190500D03*
D10*
X495300Y127000D03*
D12*
X155321Y254000D03*
X231140Y254000D03*
D13*
X252600Y85300D03*
X252600Y100300D03*
X252600Y115300D03*
X252600Y130300D03*
X252600Y145300D03*
X252600Y160300D03*
X252600Y175300D03*
X252600Y190300D03*
X252600Y205300D03*
X77600Y205300D03*
X77600Y190300D03*
X77600Y175300D03*
X77600Y160300D03*
X77600Y145300D03*
X77600Y130300D03*
X77600Y115300D03*
X77600Y100300D03*
X77600Y85300D03*
D14*
X154100Y151400D03*
D15*
X290580Y88900D03*
X319020Y88900D03*
X319020Y139700D03*
X290580Y139700D03*
D16*
X287183Y238658D02*
X297163Y238658D01*
X287183Y238658D02*
X287183Y243638D01*
X297163Y243638D01*
X297163Y238658D01*
X297163Y239627D02*
X287183Y239627D01*
X287183Y240596D02*
X297163Y240596D01*
X297163Y241565D02*
X287183Y241565D01*
X287183Y242534D02*
X297163Y242534D01*
X297163Y243503D02*
X287183Y243503D01*
X287183Y229158D02*
X297163Y229158D01*
X287183Y229158D02*
X287183Y234138D01*
X297163Y234138D01*
X297163Y229158D01*
X297163Y230127D02*
X287183Y230127D01*
X287183Y231096D02*
X297163Y231096D01*
X297163Y232065D02*
X287183Y232065D01*
X287183Y233034D02*
X297163Y233034D01*
X297163Y234003D02*
X287183Y234003D01*
X287183Y219658D02*
X297163Y219658D01*
X287183Y219658D02*
X287183Y224638D01*
X297163Y224638D01*
X297163Y219658D01*
X297163Y220627D02*
X287183Y220627D01*
X287183Y221596D02*
X297163Y221596D01*
X297163Y222565D02*
X287183Y222565D01*
X287183Y223534D02*
X297163Y223534D01*
X297163Y224503D02*
X287183Y224503D01*
X313183Y219658D02*
X323163Y219658D01*
X313183Y219658D02*
X313183Y224638D01*
X323163Y224638D01*
X323163Y219658D01*
X323163Y220627D02*
X313183Y220627D01*
X313183Y221596D02*
X323163Y221596D01*
X323163Y222565D02*
X313183Y222565D01*
X313183Y223534D02*
X323163Y223534D01*
X323163Y224503D02*
X313183Y224503D01*
X313183Y238658D02*
X323163Y238658D01*
X313183Y238658D02*
X313183Y243638D01*
X323163Y243638D01*
X323163Y238658D01*
X323163Y239627D02*
X313183Y239627D01*
X313183Y240596D02*
X323163Y240596D01*
X323163Y241565D02*
X313183Y241565D01*
X313183Y242534D02*
X323163Y242534D01*
X323163Y243503D02*
X313183Y243503D01*
D12*
X101600Y254000D03*
D10*
X495300Y177800D03*
M02*
