G04 EAGLE Gerber RS-274X export*
G75*
%MOMM*%
%FSLAX34Y34*%
%LPD*%
%INSoldermask Bottom*%
%IPPOS*%
%AMOC8*
5,1,8,0,0,1.08239X$1,22.5*%
G01*
%ADD10C,4.191000*%
%ADD11C,2.203200*%
%ADD12R,2.203200X2.203200*%
%ADD13C,1.727200*%
%ADD14C,0.959600*%
%ADD15C,0.914400*%
%ADD16C,1.727200*%


D10*
X548894Y304165D03*
X548894Y39116D03*
X44069Y304165D03*
X44069Y39116D03*
D11*
X419100Y76200D03*
D12*
X419100Y50800D03*
D11*
X419100Y101600D03*
X419100Y190500D03*
D12*
X419100Y165100D03*
D11*
X419100Y215900D03*
D13*
X34036Y193040D02*
X18796Y193040D01*
X18796Y167640D02*
X34036Y167640D01*
X34036Y142240D02*
X18796Y142240D01*
X18796Y116840D02*
X34036Y116840D01*
D14*
X215900Y114300D03*
X210058Y132842D03*
X91440Y160020D03*
X91440Y86360D03*
X351790Y50292D03*
X351790Y64262D03*
X349758Y127762D03*
X350012Y140716D03*
X270002Y189484D03*
X236982Y205232D03*
X270002Y169164D03*
D15*
X303530Y231648D03*
X124206Y151384D03*
D16*
X190500Y254000D03*
D15*
X332994Y230886D03*
X318262Y231902D03*
X63500Y215900D03*
X114300Y203200D03*
X236220Y85090D03*
X270510Y86360D03*
X303784Y244856D03*
X272796Y245618D03*
D14*
X237490Y100330D03*
X266700Y114300D03*
X266700Y152400D03*
X228854Y158750D03*
D15*
X266700Y203200D03*
X236474Y190246D03*
X62738Y175006D03*
X92964Y175768D03*
X63500Y190500D03*
X93726Y190500D03*
M02*
